<svg width="352" height="252" viewBox="0 0 352 252" fill="none" xmlns="http://www.w3.org/2000/svg">
<path d="M325.09 1H26.9098C12.6001 1 1 13.9034 1 29.8206V222.179C1 238.097 12.6001 251 26.9098 251H325.09C339.4 251 351 238.097 351 222.179V29.8206C351 13.9034 339.4 1 325.09 1Z" fill="white" stroke="black" stroke-miterlimit="10"/>
<path d="M297.91 65.8936H261.533V207.383H297.91V65.8936Z" fill="#ABB08D" stroke="black" stroke-miterlimit="10"/>
<path d="M117.994 104.191H81.6172V208.447H117.994V104.191Z" fill="#4E5237" stroke="black" stroke-miterlimit="10"/>
<path d="M177.966 36.1064H141.59V208.447H177.966V36.1064Z" fill="#ABB08D" stroke="black" stroke-miterlimit="10"/>
<path d="M237.939 161.638H201.562V209.511H237.939V161.638Z" fill="#4E5237" stroke="black" stroke-miterlimit="10"/>
<path d="M44.2578 45.6807V208.447H308.724" stroke="black" stroke-miterlimit="10"/>
</svg>
