<svg width="100" height="100" viewBox="0 0 50 50" fill="none" xmlns="http://www.w3.org/2000/svg">
<path d="M7.32249 42.6775C11.5718 40.0683 21.0455 32.8907 24.9459 25.0541L7.32249 42.6775Z" fill="white"/>
<path d="M7.32301 42.6775C9.93223 38.4282 17.1098 28.9545 24.9464 25.0541L7.32301 42.6775Z" fill="white"/>
<path d="M25.0539 24.9455C29.3032 22.3363 38.7769 15.1587 42.6773 7.32213L25.0539 24.9455Z" fill="white"/>
<path d="M25.0545 24.9456C27.6637 20.6963 34.8412 11.2226 42.6778 7.32217L25.0545 24.9456Z" fill="white"/>
<path d="M1.9031 34.567C6.82743 33.7825 18.3267 30.7767 24.9291 25.0293L1.9031 34.567Z" fill="white"/>
<path d="M1.90354 34.5673C5.94027 31.64 16.1969 25.6341 24.9296 25.0296L1.90354 34.5673Z" fill="white"/>
<path d="M25.0711 24.9708C29.9954 24.1863 41.4947 21.1805 48.0971 15.4331L25.0711 24.9708Z" fill="white"/>
<path d="M25.0715 24.9711C29.1082 22.0438 39.3649 16.0379 48.0975 15.4334L25.0715 24.9711Z" fill="white"/>
<path d="M-2.81678e-07 24.9998C4.84969 26.1595 16.6239 27.7831 24.9232 24.9998L-2.81678e-07 24.9998Z" fill="white"/>
<path d="M2.81678e-07 25.0002C4.84969 23.8405 16.6239 22.2169 24.9232 25.0002L2.81678e-07 25.0002Z" fill="white"/>
<path d="M25.0762 24.9998C29.9259 26.1595 41.7001 27.7831 49.9994 24.9998L25.0762 24.9998Z" fill="white"/>
<path d="M25.0762 25.0002C29.9259 23.8405 41.7001 22.2169 49.9994 25.0002L25.0762 25.0002Z" fill="white"/>
<path d="M1.90354 15.4327C5.94027 18.36 16.1969 24.3659 24.9296 24.9704L1.90354 15.4327Z" fill="white"/>
<path d="M1.9031 15.433C6.82744 16.2175 18.3267 19.2233 24.9291 24.9707L1.9031 15.433Z" fill="white"/>
<path d="M25.0715 25.0289C29.1082 27.9562 39.3649 33.962 48.0976 34.5666L25.0715 25.0289Z" fill="white"/>
<path d="M25.0711 25.0292C29.9954 25.8137 41.4947 28.8195 48.0971 34.5669L25.0711 25.0292Z" fill="white"/>
<path d="M7.32204 7.32249C9.93125 11.5718 17.1088 21.0455 24.9454 24.9459L7.32204 7.32249Z" fill="white"/>
<path d="M7.32152 7.32253C11.5708 9.93174 21.0445 17.1093 24.9449 24.9459L7.32152 7.32253Z" fill="white"/>
<path d="M25.0535 25.0544C27.6627 29.3037 34.8403 38.7774 42.6769 42.6778L25.0535 25.0544Z" fill="white"/>
<path d="M25.053 25.0545C29.3023 27.6637 38.7759 34.8413 42.6763 42.6779L25.053 25.0545Z" fill="white"/>
<path d="M15.4325 1.9031C16.217 6.82744 19.2228 18.3267 24.9702 24.9292L15.4325 1.9031Z" fill="white"/>
<path d="M15.4327 1.90305C18.36 5.93979 24.3658 16.1964 24.9704 24.9291L15.4327 1.90305Z" fill="white"/>
<path d="M25.0292 25.0711C25.8137 29.9954 28.8195 41.4947 34.5669 48.0972L25.0292 25.0711Z" fill="white"/>
<path d="M25.0294 25.071C27.9567 29.1078 33.9625 39.3644 34.5671 48.0971L25.0294 25.071Z" fill="white"/>
<path d="M24.9997 -2.0431e-07C23.84 4.8497 22.2164 16.6239 24.9997 24.9233L24.9997 -2.0431e-07Z" fill="white"/>
<path d="M24.9993 2.0431e-07C26.159 4.8497 27.7826 16.6239 24.9993 24.9233L24.9993 2.0431e-07Z" fill="white"/>
<path d="M24.9997 25.0767C23.84 29.9264 22.2164 41.7006 24.9997 49.9999L24.9997 25.0767Z" fill="white"/>
<path d="M24.9993 25.0767C26.159 29.9264 27.7826 41.7006 24.9993 49.9999L24.9993 25.0767Z" fill="white"/>
<path d="M34.5663 1.90305C31.639 5.93979 25.6332 16.1964 25.0286 24.9291L34.5663 1.90305Z" fill="white"/>
<path d="M34.5665 1.9031C33.782 6.82744 30.7762 18.3267 25.0288 24.9292L34.5665 1.9031Z" fill="white"/>
<path d="M24.9696 25.071C22.0423 29.1078 16.0365 39.3644 15.4319 48.0971L24.9696 25.071Z" fill="white"/>
<path d="M24.9698 25.0711C24.1854 29.9954 21.1796 41.4947 15.4321 48.0972L24.9698 25.0711Z" fill="white"/>
<path d="M42.6775 7.32253C38.4282 9.93175 28.9545 17.1093 25.0541 24.9459L42.6775 7.32253Z" fill="white"/>
<path d="M42.677 7.32249C40.0678 11.5718 32.8902 21.0455 25.0536 24.9459L42.677 7.32249Z" fill="white"/>
<path d="M24.9461 25.0545C20.6968 27.6637 11.2231 34.8413 7.32269 42.6779L24.9461 25.0545Z" fill="white"/>
<path d="M24.9455 25.0544C22.3363 29.3037 15.1588 38.7774 7.32217 42.6778L24.9455 25.0544Z" fill="white"/>
<path d="M48.0959 15.433C43.1716 16.2175 31.6723 19.2233 25.0699 24.9707L48.0959 15.433Z" fill="white"/>
<path d="M48.0955 15.4327C44.0588 18.36 33.8021 24.3659 25.0694 24.9704L48.0955 15.4327Z" fill="white"/>
<path d="M24.928 25.0292C20.0036 25.8137 8.50434 28.8195 1.90191 34.5669L24.928 25.0292Z" fill="white"/>
<path d="M24.9275 25.0289C20.8908 27.9562 10.6342 33.9621 1.90147 34.5666L24.9275 25.0289Z" fill="white"/>
<path d="M50 25.0002C45.1503 23.8405 33.3761 22.2169 25.0768 25.0002L50 25.0002Z" fill="white"/>
<path d="M50 24.9998C45.1503 26.1595 33.3761 27.7831 25.0768 24.9998L50 24.9998Z" fill="white"/>
<path d="M24.9238 25.0002C20.0741 23.8405 8.29992 22.2169 0.000616243 25.0002L24.9238 25.0002Z" fill="white"/>
<path d="M24.9238 24.9998C20.0741 26.1595 8.29992 27.7831 0.000615904 24.9998L24.9238 24.9998Z" fill="white"/>
<path d="M48.0965 34.5673C44.0597 31.64 33.8031 25.6341 25.0704 25.0296L48.0965 34.5673Z" fill="white"/>
<path d="M48.0969 34.567C43.1726 33.7825 31.6733 30.7767 25.0709 25.0293L48.0969 34.567Z" fill="white"/>
<path d="M24.9285 24.9711C20.8918 22.0438 10.6351 16.038 1.90245 15.4334L24.9285 24.9711Z" fill="white"/>
<path d="M24.9289 24.9708C20.0046 24.1863 8.50532 21.1805 1.90288 15.4331L24.9289 24.9708Z" fill="white"/>
<path d="M42.677 42.6775C40.0678 38.4282 32.8902 28.9545 25.0536 25.0541L42.677 42.6775Z" fill="white"/>
<path d="M42.6775 42.6775C38.4282 40.0683 28.9545 32.8907 25.0541 25.0541L42.6775 42.6775Z" fill="white"/>
<path d="M24.9455 24.9456C22.3363 20.6963 15.1588 11.2226 7.32217 7.32217L24.9455 24.9456Z" fill="white"/>
<path d="M24.9461 24.9455C20.6968 22.3363 11.2231 15.1587 7.32269 7.32214L24.9461 24.9455Z" fill="white"/>
<path d="M34.5665 48.0969C33.782 43.1726 30.7762 31.6733 25.0288 25.0708L34.5665 48.0969Z" fill="white"/>
<path d="M34.5663 48.0969C31.639 44.0602 25.6332 33.8036 25.0286 25.0709L34.5663 48.0969Z" fill="white"/>
<path d="M24.9698 24.9289C24.1854 20.0046 21.1796 8.50529 15.4321 1.90285L24.9698 24.9289Z" fill="white"/>
<path d="M24.9696 24.929C22.0423 20.8922 16.0365 10.6356 15.4319 1.9029L24.9696 24.929Z" fill="white"/>
<path d="M24.9993 50C26.159 45.1503 27.7826 33.3761 24.9993 25.0767L24.9993 50Z" fill="white"/>
<path d="M24.9997 50C23.84 45.1503 22.2164 33.3761 24.9997 25.0767L24.9997 50Z" fill="white"/>
<path d="M24.9993 24.9233C26.159 20.0736 27.7826 8.2994 24.9993 8.78577e-05L24.9993 24.9233Z" fill="white"/>
<path d="M24.9997 24.9233C23.84 20.0736 22.2164 8.2994 24.9997 8.76184e-05L24.9997 24.9233Z" fill="white"/>
<path d="M15.4337 48.0969C18.361 44.0602 24.3668 33.8036 24.9714 25.0709L15.4337 48.0969Z" fill="white"/>
<path d="M15.4335 48.0969C16.218 43.1726 19.2237 31.6733 24.9712 25.0708L15.4335 48.0969Z" fill="white"/>
<path d="M25.0304 24.929C27.9577 20.8922 33.9635 10.6356 34.5681 1.90289L25.0304 24.929Z" fill="white"/>
<path d="M25.0302 24.9289C25.8146 20.0046 28.8204 8.50529 34.5679 1.90284L25.0302 24.9289Z" fill="white"/>
<path d="M24.5461 19.4737C24.5923 18.9166 25.4077 18.9166 25.4539 19.4737V19.4737C25.4917 19.9298 26.1033 20.0515 26.3128 19.6445V19.6445C26.5687 19.1475 27.322 19.4595 27.1515 19.9919V19.9919C27.0119 20.4278 27.5303 20.7742 27.8796 20.4784V20.4784C28.3062 20.1172 28.8828 20.6938 28.5216 21.1204V21.1204C28.2258 21.4697 28.5722 21.9881 29.0081 21.8485V21.8485C29.5405 21.678 29.8525 22.4313 29.3555 22.6872V22.6872C28.9485 22.8967 29.0702 23.5083 29.5263 23.5461V23.5461C30.0834 23.5923 30.0834 24.4077 29.5263 24.4539V24.4539C29.0702 24.4917 28.9485 25.1033 29.3555 25.3128V25.3128C29.8525 25.5687 29.5405 26.322 29.0081 26.1515V26.1515C28.5722 26.0119 28.2258 26.5303 28.5216 26.8796V26.8796C28.8828 27.3062 28.3062 27.8828 27.8796 27.5216V27.5216C27.5303 27.2258 27.0119 27.5722 27.1515 28.0081V28.0081C27.322 28.5405 26.5687 28.8525 26.3128 28.3555V28.3555C26.1033 27.9485 25.4917 28.0702 25.4539 28.5263V28.5263C25.4077 29.0834 24.5923 29.0834 24.5461 28.5263V28.5263C24.5083 28.0702 23.8967 27.9485 23.6872 28.3555V28.3555C23.4313 28.8525 22.678 28.5405 22.8485 28.0081V28.0081C22.9881 27.5722 22.4697 27.2258 22.1204 27.5216V27.5216C21.6938 27.8828 21.1172 27.3062 21.4784 26.8796V26.8796C21.7742 26.5303 21.4278 26.0119 20.9919 26.1515V26.1515C20.4595 26.322 20.1475 25.5687 20.6445 25.3128V25.3128C21.0515 25.1033 20.9298 24.4917 20.4737 24.4539V24.4539C19.9166 24.4077 19.9166 23.5923 20.4737 23.5461V23.5461C20.9298 23.5083 21.0515 22.8967 20.6445 22.6872V22.6872C20.1475 22.4313 20.4595 21.678 20.9919 21.8485V21.8485C21.4278 21.9881 21.7742 21.4697 21.4784 21.1204V21.1204C21.1172 20.6938 21.6938 20.1172 22.1204 20.4784V20.4784C22.4697 20.7742 22.9881 20.4278 22.8485 19.9919V19.9919C22.678 19.4595 23.4313 19.1475 23.6872 19.6445V19.6445C23.8967 20.0515 24.5083 19.9298 24.5461 19.4737V19.4737Z" fill="#F4B542" stroke="#638A4E" stroke-width="2"/>
</svg>
