<svg width="250" height="300" viewBox="0 0 457 285" fill="none" xmlns="http://www.w3.org/2000/svg">
<path d="M384.174 71.0059H125.203C109.757 71.0059 97.229 83.513 97.2029 98.9584L96.943 252.488C96.9168 267.971 109.461 280.536 124.943 280.536H446.584C450.347 280.536 453.181 277.111 452.478 273.414L419.539 100.278C416.308 83.2945 401.461 71.0059 384.174 71.0059Z" fill="black" stroke="black" stroke-width="8"/>
<path d="M334.872 4H118.807C112.179 4 106.807 9.37257 106.807 16V46.9042C106.807 53.5317 112.179 58.9042 118.807 58.9042H334.872C341.499 58.9042 346.872 53.5317 346.872 46.9043V16C346.872 9.37258 341.499 4 334.872 4Z" fill="black" stroke="black" stroke-width="8"/>
<path d="M279.96 71.0059H59.6348C44.1708 71.0059 31.6348 83.5419 31.6348 99.0059V178.317C31.6348 193.781 44.1708 206.317 59.6348 206.317H279.96C295.424 206.317 307.96 193.781 307.96 178.317V99.0059C307.96 83.5419 295.424 71.0059 279.96 71.0059Z" fill="white" stroke="black" stroke-width="8"/>
<path d="M266.952 4H50.8867C44.2593 4 38.8867 9.37257 38.8867 16V46.9042C38.8867 53.5317 44.2593 58.9042 50.8867 58.9042H266.952C273.579 58.9042 278.952 53.5317 278.952 46.9043V16C278.952 9.37258 273.579 4 266.952 4Z" fill="white" stroke="black" stroke-width="8"/>
<path d="M245.943 32.1016C245.943 29.8924 247.734 28.1016 249.943 28.1016H263.699C265.909 28.1016 267.699 29.8924 267.699 32.1016V44.2034C267.699 46.4125 265.909 48.2034 263.699 48.2034H249.943C247.734 48.2034 245.943 46.4125 245.943 44.2034V32.1016Z" fill="black"/>
<path d="M50.1387 38.8027C50.1387 36.5936 51.9295 34.8027 54.1387 34.8027H60.6427C62.8519 34.8027 64.6427 36.5936 64.6427 38.8027V44.204C64.6427 46.4131 62.8519 48.204 60.6427 48.204H54.1387C51.9295 48.204 50.1387 46.4131 50.1387 44.204V38.8027Z" fill="black"/>
<path d="M71.4121 57.6055H64.6994L67.8942 63.5092L70.3858 68.1135C71.7836 70.6967 74.4846 72.3061 77.4217 72.3061H78.2902C82.7084 72.3061 86.2902 68.7244 86.2902 64.3061V61.6055V57.6055H82.2902H71.4121Z" fill="black" stroke="black" stroke-width="8"/>
<path d="M64.6426 57.6055H57.9299L61.1246 63.5092L63.6163 68.1135C65.0141 70.6967 67.715 72.3061 70.6521 72.3061H71.5206C75.9389 72.3061 79.5206 68.7244 79.5206 64.3061V61.6055V57.6055H75.5206H64.6426Z" fill="white" stroke="black" stroke-width="8"/>
<path d="M253.197 57.6055H246.485L249.679 63.5092L252.171 68.1135C253.569 70.6967 256.27 72.3061 259.207 72.3061H260.075C264.494 72.3061 268.075 68.7244 268.075 64.3061V61.6055V57.6055H264.075H253.197Z" fill="black" stroke="black" stroke-width="8"/>
<path d="M246.428 57.6055H239.715L242.91 63.5092L245.401 68.1135C246.799 70.6967 249.5 72.3061 252.437 72.3061H253.306C257.724 72.3061 261.306 68.7244 261.306 64.3061V61.6055V57.6055H257.306H246.428Z" fill="white" stroke="black" stroke-width="8"/>
<path d="M325.717 57.6055H332.429L329.235 63.5092L326.414 68.7214C325.219 70.93 322.91 72.3061 320.398 72.3061C316.621 72.3061 313.558 69.2437 313.558 65.466V61.6055V57.6055H317.558H325.717Z" fill="black" stroke="black" stroke-width="8"/>
<path d="M71.8945 38.8027C71.8945 36.5936 73.6854 34.8027 75.8945 34.8027H125.911C128.12 34.8027 129.911 36.5936 129.911 38.8027V44.204C129.911 46.4131 128.12 48.204 125.911 48.204H75.8945C73.6854 48.204 71.8945 46.4131 71.8945 44.204V38.8027Z" fill="black"/>
<path d="M179.927 84.4072H58.1387C51.5113 84.4072 46.1387 89.7798 46.1387 96.4072V180.916C46.1387 187.544 51.5113 192.916 58.1387 192.916H179.927C186.555 192.916 191.927 187.544 191.927 180.916V96.4072C191.927 89.7798 186.555 84.4072 179.927 84.4072Z" fill="white" fill-opacity="0.7" stroke="black" stroke-width="8"/>
<line x1="239.404" y1="181.566" x2="283.075" y2="181.566" stroke="black" stroke-width="8" stroke-linecap="round"/>
<line x1="213.682" y1="151.413" x2="285.454" y2="151.413" stroke="black" stroke-width="8" stroke-linecap="round"/>
<line x1="213.682" y1="138.013" x2="285.454" y2="138.013" stroke="black" stroke-width="8" stroke-linecap="round"/>
<line x1="213.682" y1="124.611" x2="285.454" y2="124.611" stroke="black" stroke-width="8" stroke-linecap="round"/>
<line x1="213.682" y1="111.21" x2="285.454" y2="111.21" stroke="black" stroke-width="8" stroke-linecap="round"/>
<line x1="213.682" y1="97.8086" x2="285.454" y2="97.8086" stroke="black" stroke-width="8" stroke-linecap="round"/>
<line x1="325.965" y1="86.0889" x2="325.965" y2="104.509" stroke="white" stroke-width="8" stroke-linecap="round"/>
<line x1="340.469" y1="86.0889" x2="340.469" y2="104.509" stroke="white" stroke-width="8" stroke-linecap="round"/>
<line x1="354.973" y1="86.0889" x2="354.973" y2="104.509" stroke="white" stroke-width="8" stroke-linecap="round"/>
<line x1="369.477" y1="86.0889" x2="369.477" y2="104.509" stroke="white" stroke-width="8" stroke-linecap="round"/>
<line x1="398.658" y1="86.0889" x2="398.658" y2="104.509" stroke="white" stroke-width="8" stroke-linecap="round"/>
<line x1="383.98" y1="86.0889" x2="383.98" y2="104.509" stroke="white" stroke-width="8" stroke-linecap="round"/>
<line x1="307.785" y1="45.5029" x2="307.785" y2="50.9042" stroke="white" stroke-width="8" stroke-linecap="round"/>
<line x1="336.967" y1="45.5029" x2="336.967" y2="50.9042" stroke="white" stroke-width="8" stroke-linecap="round"/>
<line x1="322.289" y1="45.5029" x2="322.289" y2="50.9042" stroke="white" stroke-width="8" stroke-linecap="round"/>
<rect x="265.32" y="175.515" width="21.7561" height="13.4012" rx="5" fill="black"/>
<path d="M96.7715 205.15H316.114L318.463 228.694H104.112L96.7715 205.15Z" fill="black"/>
<path d="M100.903 205.267H96.9026V209.267V236.55C96.9026 236.897 96.7226 237.22 96.4271 237.402L57.2678 261.523C54.8582 263.007 53.3906 265.635 53.3906 268.465C53.3906 272.991 57.0772 276.651 61.6032 276.618L78.7154 276.493C83.1512 276.461 86.73 272.856 86.73 268.42C86.73 268.395 86.7432 268.371 86.7649 268.358L125.962 244.213C128.622 242.575 130.242 239.674 130.242 236.55V209.267V205.267H126.242H100.903Z" fill="white" stroke="black" stroke-width="8"/>
<path d="M189.526 234.084C189.645 229.753 193.191 226.304 197.523 226.304H271.518C273.972 226.304 276.29 227.43 277.807 229.359L287.744 241.996C288.853 243.406 289.455 245.147 289.455 246.941V271.909C289.455 276.327 285.874 279.909 281.455 279.909H196.492C191.988 279.909 188.371 276.192 188.495 271.689L189.526 234.084Z" fill="black" stroke="black" stroke-width="8"/>
<path d="M5.8934 265.362L4.42627 272.738C3.68812 276.449 6.52728 279.909 10.311 279.909H193.9C196.754 279.909 199.213 277.899 199.781 275.102L201.692 265.682C202.161 263.373 203.624 261.387 205.69 260.256L240.273 241.321C247.536 237.344 244.712 226.304 236.431 226.304H85.5875C76.6011 226.304 67.7567 228.546 59.8561 232.828L9.92764 259.889C7.83605 261.023 6.35751 263.029 5.8934 265.362Z" fill="white" stroke="black" stroke-width="8"/>
<line x1="10.9336" y1="262.508" x2="170.669" y2="262.508" stroke="black" stroke-width="8" stroke-linecap="round"/>
<path d="M274.137 241.266L235 264.94C232.584 266.402 231.107 269.02 231.107 271.844C231.107 276.3 234.72 279.912 239.176 279.912L256.378 279.912C260.835 279.912 264.447 276.3 264.447 271.844C264.447 271.82 264.459 271.798 264.48 271.785L303.617 248.111C306.312 246.481 307.959 243.56 307.959 240.411V214.964C307.959 211.65 305.272 208.964 301.959 208.964H280.619C277.306 208.964 274.619 211.65 274.619 214.964V240.411C274.619 240.761 274.436 241.085 274.137 241.266Z" fill="white" stroke="black" stroke-width="8"/>
<path d="M177.548 84.4072H79.8945C73.2671 84.4072 67.8945 89.7798 67.8945 96.4072V180.916C67.8945 187.544 73.2671 192.916 79.8945 192.916H177.548C184.176 192.916 189.548 187.544 189.548 180.916V96.4072C189.548 89.7798 184.176 84.4072 177.548 84.4072Z" fill="black" stroke="black" stroke-width="8"/>
<path d="M131.517 165.113H141.57C140.511 166.501 138.713 167.489 136.544 167.489C134.374 167.489 132.576 166.501 131.517 165.113Z" stroke="white" stroke-width="6" stroke-linecap="round"/>
<rect x="160.113" y="148.712" width="10.878" height="20.1018" rx="5.43902" fill="white"/>
<path d="M165.836 151.192H170.209C171.579 151.192 172.689 150.081 172.689 148.712V148.712" stroke="white" stroke-width="6" stroke-linecap="round"/>
<rect width="10.878" height="20.1018" rx="5.43902" transform="matrix(-1 0 0 1 109.35 148.712)" fill="white"/>
<path d="M103.627 151.192H99.2535C97.884 151.192 96.7738 150.081 96.7738 148.712V148.712" stroke="white" stroke-width="6" stroke-linecap="round"/>
</svg>
