<svg width="300" height="300" viewBox="0 0 495 395" fill="none" xmlns="http://www.w3.org/2000/svg">
<rect x="180" y="222" width="118" height="19" fill="#231F20"/>
<path d="M354.5 182.5L360 178L371.5 181L379 181.5L383 187V281L382 282.5L375.5 284L366.5 283.5H360L357.5 276.5L358 268L357.5 257.5L357 234L356.5 210.5L356 197.5L354.5 182.5Z" fill="#231F20"/>
<path d="M309 161.5L327.5 156L338 156.5L344.28 162.887L352 170.566V301.811L350.07 303.906L337.526 306L320.158 305.302H307.614L302.789 295.528L301 283.5L301.5 269L301.824 236.189L300.859 203.377L299.895 185.226L309 161.5Z" fill="#231F20"/>
<path d="M309 161.5L327.5 156L338 156.5L344.28 162.887L352 170.566V301.811L350.07 303.906L337.526 306L320.158 305.302H307.614L302.789 295.528L301 283.5L301.5 269L301.824 236.189L300.859 203.377L299.895 185.226L309 161.5Z" fill="#231F20"/>
<path d="M132.105 161.5L150.605 156L161.105 156.5L167.386 162.887L176.5 170.566V301.811L173.175 303.906L160.632 306L143.263 305.302H130.719L125.895 295.528L124.105 283.5L124.605 269L124.93 236.189L123.965 203.377L123 185.226L132.105 161.5Z" fill="#231F20"/>
<path d="M132.105 161.5L150.605 156L161.105 156.5L167.386 162.887L176.5 170.566V301.811L173.175 303.906L160.632 306L143.263 305.302H130.719L125.895 295.528L124.105 283.5L124.605 269L124.93 236.189L123.965 203.377L123 185.226L132.105 161.5Z" fill="#231F20"/>
<path d="M77.5 226L79 224L82.5 223H85.5L88.5 225.5L89 234L87.5 238.5L84.5 240.5H81L77.5 238L76 232L77.5 226Z" fill="#231F20"/>
<path d="M389.5 225.429L391 223.143L394.5 222H397.5L400.5 224.857L401 234.571L399.5 239.714L396.5 242H393L389.5 239.143L388 232.286L389.5 225.429Z" fill="#231F20"/>
<path d="M128.7 158C124.575 160.555 121 165.667 120.45 169.153C119.625 174.729 118.25 175.658 106.425 176.82C99 177.517 91.85 179.608 90.475 181.467C89.1 183.094 88 191.691 88 200.055C88 215.391 88 215.623 79.475 217.017C71.225 218.411 71.225 218.411 72.05 231.655C72.875 243.505 73.7 245.132 78.925 245.829C85.8 246.758 86.9 249.547 88.825 269.297C90.2 283.703 94.325 287.42 110.55 289.744C118.8 290.673 121 292.067 121 296.017C121 306.705 131.725 311.353 156.475 311.353C178.75 311.353 179.85 309.726 181.5 275.57L182.875 247.455H239.25H295.625L297 275.803C297.825 294.623 299.475 305.079 301.95 307.17C306.35 310.888 345.675 310.191 351.175 306.241C353.1 304.847 355.85 300.432 356.95 296.482C358.875 290.208 360.525 289.279 369.05 288.582C383.075 287.653 388.025 281.611 389.675 264.185C391.05 250.476 391.875 249.314 399.025 246.991C406.45 244.667 407 243.505 407 232.585C407 221.897 406.175 220.27 399.575 217.714C389.125 213.997 388.85 213.532 389.675 197.732C390.5 181.003 387.475 177.517 369.875 175.194C360.525 174.032 357.5 172.638 357.5 169.617C357.5 167.526 355.025 162.879 351.725 159.394C346.5 153.817 344.3 153.353 327.25 153.353C301.675 153.353 299.2 156.373 297.55 190.064C296.725 203.773 295.075 215.623 293.7 216.32C292.325 217.25 266.75 217.482 237.05 217.017L182.875 216.553L180.95 191.458C178.475 158.929 175.45 154.747 152.075 153.817C138.875 153.353 134.475 154.05 128.7 158ZM168.3 164.273C172.425 167.991 173.25 175.658 174.9 232.585C176.825 296.017 176.825 296.714 171.05 301.594C162.8 308.564 141.625 306.473 132.55 298.108C126.5 292.3 126.225 291.835 126.775 234.211C127.05 202.147 127.875 173.567 128.7 170.314C131.45 158.697 157.025 154.747 168.3 164.273ZM343.475 163.576C350.9 170.314 350.9 169.617 349.8 243.273C349.25 291.603 348.975 295.32 343.75 299.735C339.625 303.22 334.675 304.382 324.5 304.382C302.5 304.382 301.95 303.22 302.775 240.253C303.6 177.982 304.975 167.991 313.5 162.182C322.3 156.141 336.05 156.838 343.475 163.576ZM119.625 186.347C120.45 189.367 120.725 212.138 120.45 237L119.625 282.308L112.2 283.005C106.7 283.47 103.675 282.076 100.1 277.661C96.25 272.55 95.425 265.114 95.15 229.797C94.875 190.761 95.15 187.508 100.1 184.488C108.35 179.376 117.975 180.305 119.625 186.347ZM378.95 184.023C381.15 185.882 382.25 199.591 382.25 230.494C382.25 271.62 381.975 274.408 376.475 279.055C373.45 281.611 368.225 283.47 364.925 283.005C358.875 282.308 358.875 281.844 358.05 231.655L357.5 181.235H366.575C371.525 181.235 377.025 182.397 378.95 184.023ZM88 231.191C88 237.697 86.9 239.323 82.5 239.323C78.375 239.323 77 237.697 77 232.817C77 225.382 78.925 223.058 84.425 223.058C86.625 223.058 88 225.847 88 231.191ZM296.45 231.655L295.625 240.485H239.25H182.875L182.05 235.141C179.85 223.058 179.85 223.058 240.625 223.058H297.275L296.45 231.655ZM398.75 232.353C398.75 239.091 397.65 241.647 394.625 241.647C391.6 241.647 390.5 239.091 390.5 232.353C390.5 225.614 391.6 223.058 394.625 223.058C397.65 223.058 398.75 225.614 398.75 232.353Z" fill="black"/>
<path d="M144.375 167.061C143.55 168.223 144.1 169.849 145.75 170.779C147.125 171.476 148.5 170.546 148.5 168.688C148.5 164.505 146.85 163.808 144.375 167.061Z" fill="black"/>
<path d="M136.125 177.285C133.925 184.488 135.575 200.985 138.325 200.985C141.35 200.985 142.725 174.497 139.975 172.87C138.6 172.173 136.95 174.264 136.125 177.285Z" fill="black"/>
<path d="M321.75 167.294C321.75 168.455 323.125 169.617 324.5 169.617C326.15 169.617 327.25 168.455 327.25 167.294C327.25 165.9 326.15 164.97 324.5 164.97C323.125 164.97 321.75 165.9 321.75 167.294Z" fill="black"/>
<path d="M312.4 175.659C309.65 181.7 310.475 199.823 313.5 199.823C315.15 199.823 316.25 197.964 316.525 195.641C316.525 193.55 317.075 187.276 317.9 181.7C319.55 172.173 315.975 167.991 312.4 175.659Z" fill="black"/>
<path d="M97 187L102 182.5L109.5 181L117 181.5L121 187V281L120 282.5L113.5 284L104.5 283.5L101 279.5L98 274.5L96 268L95.5 257.5L95 234L94.5 210.5L94 197.5L97 187Z" fill="#231F20"/>
</svg>
