<svg width="300" height="300" viewBox="0 0 623 547" fill="none" xmlns="http://www.w3.org/2000/svg">
<g clip-path="url(#clip0_354_344)">
<path d="M562.73 376.322C547.96 369.457 545.72 353.083 539.56 344.574C533.47 335.994 518.7 330.774 518.7 330.774C518.7 330.774 532.84 319.62 555.31 322.194C565.95 323.481 573.86 328.343 580.37 333.563C577.01 323.695 580.37 317.975 574.63 308.608C567.84 297.597 554.68 291.662 547.33 273.429C539.91 255.195 547.33 238.821 547.33 238.821C547.33 238.821 549.57 245.399 558.53 251.978C566.58 257.841 589.26 258.699 602.7 276.432C595.77 176.542 527.73 121.913 480.69 93.3834C440.3 68.9293 414.19 17.8759 304.99 25.2408C195.79 32.6771 171.43 104.252 144.41 158.38C129.43 188.411 95.5496 195.061 66.9896 215.654C88.1296 210.005 101.57 220.445 117.46 223.734C136.57 227.667 139.58 213.938 156.73 214.009C173.81 214.081 180.25 220.23 180.25 220.23C180.25 220.23 163.1 217.585 157.57 232.457C151.97 247.33 145.11 252.979 127.96 250.619C110.81 248.259 105.91 249.547 96.8096 257.841C87.7096 266.207 66.7096 260.057 54.6696 263.132C47.5996 264.92 37.9396 277.79 31.2196 288.015C36.6096 283.511 44.0296 278.577 54.0396 274.072C81.8996 261.345 117.46 284.583 117.46 284.583C117.46 284.583 89.3896 291.161 73.1496 302.53C56.8396 313.899 45.2896 302.959 34.1596 306.892C28.5596 308.894 24.0796 310.896 20.9296 312.398C20.9296 312.446 20.9296 312.469 20.9296 312.469C18.6896 347.864 31.7796 379.325 54.0396 406.282C108.5 472.208 217.77 511.248 291.41 515.968C368.34 520.83 503.44 491.585 567.56 404.566C573.23 396.915 578.34 388.692 582.82 380.111C576.38 380.04 569.03 379.182 562.73 376.322Z" fill="#C5C884"/>
<path d="M284.69 170.893C284.69 193.631 266.63 212.15 244.3 212.15C221.97 212.15 203.91 193.631 203.91 170.893C203.91 148.083 221.97 129.564 244.3 129.564C266.63 129.564 284.69 148.083 284.69 170.893Z" fill="#8DAD78"/>
<path d="M537.39 129.564C537.39 137.858 530.81 144.579 522.76 144.579C514.64 144.579 508.06 137.858 508.06 129.564C508.06 121.341 514.64 114.62 522.76 114.62C530.81 114.62 537.39 121.341 537.39 129.564Z" fill="#8DAD78"/>
<path d="M567.56 404.566C503.44 491.585 368.34 520.83 291.41 515.968C217.77 511.248 108.5 472.208 54.04 406.282C74.76 382.757 127.82 335.207 225.68 321.836C357.28 303.817 448.98 410.572 548.38 404.923C555.1 404.494 561.47 404.423 567.56 404.566Z" fill="#8DAD78"/>
<path d="M141.05 127.204C153.3 89.8082 124.32 107.041 113.4 130.923C102.48 154.805 81.9004 157.379 81.9004 170.893C81.9004 184.336 128.87 164.601 141.05 127.204Z" stroke="#8DAD78" stroke-width="0.614379"/>
<path d="M475.93 80.2268C475.93 80.2268 441.91 50.696 428.05 41.186C414.26 31.6761 420.35 18.877 451.99 33.6067C483.7 48.4079 497.14 76.9377 493.01 82.8725C488.81 88.8072 475.93 80.2268 475.93 80.2268Z" stroke="#8DAD78" stroke-width="0.614379"/>
<path d="M159.81 168.605C159.81 169.892 158.83 170.893 157.64 170.893C156.38 170.893 155.4 169.892 155.4 168.605C155.4 167.389 156.38 166.388 157.64 166.388C158.83 166.388 159.81 167.389 159.81 168.605Z" fill="#8DAD78"/>
<path d="M178.221 172.895C178.221 174.111 177.241 175.112 176.051 175.112C174.791 175.112 173.811 174.111 173.811 172.895C173.811 171.608 174.791 170.607 176.051 170.607C177.241 170.607 178.221 171.608 178.221 172.895Z" fill="#8DAD78"/>
<path d="M239.82 105.897C239.82 107.112 238.84 108.113 237.65 108.113C236.39 108.113 235.41 107.112 235.41 105.897C235.41 104.609 236.39 103.608 237.65 103.608C238.84 103.608 239.82 104.609 239.82 105.897Z" fill="#8DAD78"/>
<path d="M527.1 304.676C527.1 305.963 526.12 306.964 524.93 306.964C523.74 306.964 522.76 305.963 522.76 304.676C522.76 303.46 523.74 302.459 524.93 302.459C526.12 302.459 527.1 303.46 527.1 304.676Z" fill="#8DAD78"/>
<path d="M534.59 298.597C534.59 299.885 533.61 300.886 532.42 300.886C531.16 300.886 530.18 299.885 530.18 298.597C530.18 297.382 531.16 296.381 532.42 296.381C533.61 296.381 534.59 297.382 534.59 298.597Z" fill="#8DAD78"/>
<path d="M173.81 161.383C173.81 163.314 172.27 164.958 170.31 164.958C168.35 164.958 166.74 163.314 166.74 161.383C166.74 159.381 168.35 157.736 170.31 157.736C172.27 157.736 173.81 159.381 173.81 161.383Z" fill="#8DAD78"/>
<path d="M546.77 185.837C546.77 187.839 545.16 189.412 543.2 189.412C541.31 189.412 539.7 187.839 539.7 185.837C539.7 183.835 541.31 182.19 543.2 182.19C545.16 182.19 546.77 183.835 546.77 185.837Z" fill="#8DAD78"/>
<path d="M166.74 294.379C166.74 297.024 164.71 299.098 162.19 299.098C159.67 299.098 157.64 297.024 157.64 294.379C157.64 291.805 159.67 289.731 162.19 289.731C164.71 289.731 166.74 291.805 166.74 294.379Z" stroke="white" stroke-width="0.614379"/>
<path d="M425.67 94.8847C425.67 97.4589 423.64 99.5325 421.12 99.5325C418.6 99.5325 416.5 97.4589 416.5 94.8847C416.5 92.3106 418.6 90.1655 421.12 90.1655C423.64 90.1655 425.67 92.3106 425.67 94.8847Z" stroke="white" stroke-width="0.614379"/>
<path d="M210.98 79.8693C210.98 88.1636 204.4 94.8134 196.35 94.8134C188.3 94.8134 181.72 88.1636 181.72 79.8693C181.72 71.6464 188.3 64.9966 196.35 64.9966C204.4 64.9966 210.98 71.6464 210.98 79.8693Z" stroke="white" stroke-width="0.614379"/>
<path d="M622.02 208.503C622.02 225.378 608.58 239.035 592.06 239.035C575.54 239.035 562.17 225.378 562.17 208.503C562.17 191.629 575.54 177.9 592.06 177.9C608.58 177.9 622.02 191.629 622.02 208.503Z" stroke="white" stroke-width="0.614379"/>
<path d="M60.8295 357.23C60.8295 374.105 47.4595 387.834 30.9395 387.834C14.4195 387.834 0.979492 374.105 0.979492 357.23C0.979492 340.355 14.4195 326.698 30.9395 326.698C47.4595 326.698 60.8295 340.355 60.8295 357.23Z" stroke="white" stroke-width="0.614379"/>
<path d="M257.809 46.1196C257.809 46.1196 251.509 49.4803 251.229 63.5664C250.879 77.7241 264.109 84.2309 272.439 84.0879L271.739 81.8713C271.739 81.8713 257.529 80.2982 253.819 67.9996C250.179 55.6296 258.229 47.3352 258.229 47.3352L257.809 46.1196Z" fill="#3D2624"/>
<path d="M487.48 292.234C487.48 292.234 484.54 314.543 446.32 323.052C408.03 331.561 368.55 309.252 368.55 309.252L374.99 308.608C374.99 308.608 397.32 321.836 424.06 320.192C450.87 318.547 466.06 301.958 466.06 301.958L487.48 292.234Z" fill="#3D2624"/>
<path fill-rule="evenodd" clip-rule="evenodd" d="M507.15 280.293C481.32 328.486 450.94 318.547 408.38 314.9C365.82 311.254 348.11 309.252 309.82 311.683C271.53 314.114 246.96 312.469 233.03 289.803C219.17 267.136 224.28 209.576 253.82 185.265C283.43 160.954 287.56 117.694 287.56 117.694L376.32 65.4971C376.32 65.4971 373.1 113.905 417.55 121.198C462 128.491 499.24 156.878 496.86 184.407C496.86 184.407 532.98 232.1 507.15 280.293ZM494.9 182.19C494.9 182.19 494.34 150.371 439.95 132.996C439.95 132.996 453.81 140.647 471.31 154.662C488.74 168.605 493.29 182.19 493.29 182.19H494.9Z" fill="#3D2624"/>
<path d="M256.97 159.881C256.97 159.881 244.37 171.465 235.41 195.776C226.52 220.087 207.69 295.452 207.69 295.452L238.14 314.9L267.54 232.672L256.97 159.881Z" fill="#C56E5D"/>
<path d="M378.35 276.789C373.66 290.804 374.85 306.106 381.5 319.191L383.18 326.413L387.66 346.147C356.93 373.39 314.3 382.543 288.12 376.608C261.87 370.745 255.22 348.793 255.22 348.793L259.28 319.834L252.28 255.338C252.28 255.338 246.89 246.901 244.58 227.381C242.27 207.86 256.97 159.881 256.97 159.881L304.71 140.361L339.5 137.358L397.6 159.881L405.09 179.116C404.88 189.77 397.18 217.084 389.2 242.968C385.42 255.195 381.5 267.136 378.35 276.789Z" fill="#F7DBC6"/>
<path d="M339.85 140.504C334.39 150.657 314.93 163.385 307.02 160.596C299.18 157.808 305.55 143.507 305.55 143.507C305.644 141.457 305.714 139.574 305.76 137.858C306.11 126.418 306.04 121.555 306.04 121.555L339.85 98.6743C339.08 102.893 338.66 107.612 338.52 112.403C338.1 126.346 339.85 140.504 339.85 140.504Z" fill="#C56E5D"/>
<path d="M339.85 98.6743C339.08 102.893 338.66 107.612 338.52 112.403C334.67 118.409 328.23 127.276 321.51 132.138C314.58 137.215 308.91 137.93 305.76 137.858C306.11 126.418 306.04 121.555 306.04 121.555L339.85 98.6743Z" fill="#AF5448"/>
<path d="M269.29 86.5906C269.29 86.5906 270.48 114.834 289.94 127.562C309.47 140.29 336.7 113.619 341.39 98.8892C346.08 84.1595 344.54 52.3406 344.54 52.3406C344.54 52.3406 318.78 34.8223 299.32 34.8223C279.86 34.8223 269.29 44.7612 269.29 44.7612C269.29 44.7612 269.29 71.861 269.29 86.5906Z" fill="#C56E5D"/>
<path d="M291.55 35.3942C291.55 35.3942 290.92 45.7622 309.68 57.9177C328.37 70.0733 338.52 72.5044 338.52 72.5044L342.44 94.8849C342.44 94.8849 339.71 101.892 339.01 104.395C338.17 107.183 338.45 116.05 338.45 116.05C338.45 116.05 354.27 113.619 359.73 98.6746C359.73 98.6746 375.9 86.376 376.46 64.067C377.09 41.758 365.75 34.8222 365.75 34.8222C365.75 34.8222 362.88 8.15146 334.04 3.57525C305.13 -1.00096 282.17 15.5163 282.17 15.5163C282.17 15.5163 268.1 13.5142 260.54 23.6677C252.91 33.8211 257.81 46.1197 257.81 46.1197C257.81 46.1197 251.16 52.698 255.08 63.495C259 74.2205 269.29 75.6506 269.29 75.6506C269.29 75.6506 270.27 57.2742 275.52 48.1218C280.77 38.9694 291.55 35.3942 291.55 35.3942Z" fill="#3D2624"/>
<path d="M339.85 75.7936C339.85 75.7936 343.56 66.4267 351.19 65.4971C358.75 64.4961 359.31 78.2247 354.06 87.3771C348.81 96.5295 341.39 94.742 341.39 94.742L339.85 75.7936Z" fill="#C56E5D"/>
<path d="M336.14 65.4253C336.14 65.4253 341.25 81.013 338.31 93.3116C338.31 93.3116 339.08 92.525 340.2 90.8805C342.65 87.2338 343.63 73.4337 344.75 68.7144L336.14 65.4253Z" fill="#3D2624"/>
<path d="M281.751 16.8749C281.751 16.8749 288.121 7.4365 300.231 3.64683C312.341 -0.214346 322.421 3.64683 322.421 3.64683L324.381 3.50382C324.381 3.50382 313.111 -2.07343 300.371 1.93075C287.631 5.86343 278.811 16.0884 278.811 16.0884L281.751 16.8749Z" fill="#3D2624"/>
<path d="M365.75 34.8223C365.75 34.8223 372.54 36.1093 376.53 43.5457C380.52 50.982 376.39 58.5613 376.39 58.5613L375.69 57.6318C375.69 57.6318 378.91 51.1965 374.92 44.2607C370.93 37.2534 365.75 37.6109 365.75 37.6109V34.8223Z" fill="#3D2624"/>
<path d="M271.74 70.86C271.74 70.86 272.58 69.0009 278.32 69.1439C284.06 69.2154 287.56 72.5046 287.56 72.5046C287.56 72.5046 284.9 67.4993 279.65 66.7843C274.4 66.0693 271.88 70.0735 271.74 70.86Z" fill="#3D2624"/>
<path d="M291.55 35.394C291.55 35.394 290.64 45.5475 296.45 53.7704C302.33 61.9933 319.55 61.9933 319.55 61.9933L320.25 63.5663C320.25 63.5663 303.24 63.7093 296.31 57.4886C289.45 51.2678 288.68 40.8283 289.94 35.394H291.55Z" fill="#3D2624"/>
<path d="M303.1 71.5031C303.1 71.5031 304.08 69.358 310.73 69.501C317.38 69.644 321.37 73.4337 321.37 73.4337C321.37 73.4337 318.29 67.5704 312.27 66.7839C306.18 65.9258 303.24 70.5735 303.1 71.5031Z" fill="#3D2624"/>
<path d="M287.561 98.3171C287.561 98.3171 288.401 99.1752 291.761 100.176C295.051 101.177 297.361 100.176 297.361 100.176C297.361 100.176 296.381 98.3171 293.791 97.8881C291.271 97.5306 287.561 98.3171 287.561 98.3171Z" fill="#913D37"/>
<path d="M287.561 72.5044C287.561 72.5044 289.381 74.5065 290.081 79.7262C290.711 84.8745 290.081 88.9501 290.081 88.9501C290.081 88.9501 287.771 75.436 287.561 72.5044Z" fill="#AF5448"/>
<path d="M272.44 78.2959C272.44 78.2959 275.31 79.5829 278.88 79.9404C282.38 80.3695 286.79 79.2254 286.79 79.2254C286.79 79.2254 285.18 74.7207 281.4 73.6482C275.45 72.0036 272.44 78.2959 272.44 78.2959Z" fill="#AF5448"/>
<path d="M303.1 79.0112C303.1 79.0112 303.73 74.435 309.47 73.4339C315.21 72.4329 322 78.5822 322 78.5822C322 78.5822 310.73 84.0879 303.1 79.0112Z" fill="#AF5448"/>
<path d="M279.79 79.869C275.94 79.7975 272.44 78.2959 272.44 78.2959L271.74 78.7964C271.25 79.1539 270.2 79.2969 270.2 79.2969C271.25 79.726 272.3 79.726 272.93 79.583C274.26 80.3695 276.64 81.442 279.65 81.5135C284.41 81.585 286.79 79.869 286.79 79.869V79.2254C286.79 79.2254 283.64 79.9405 279.79 79.869Z" fill="#3D2624"/>
<path d="M322 78.582C322 78.582 317.38 80.0121 312.62 80.1551C307.79 80.2981 303.38 78.868 303.38 78.868L302.47 79.4401C301.91 79.7976 300.58 80.0121 300.58 80.0121C301.91 80.4411 303.24 80.3696 304.01 80.2266C305.76 81.0131 308.7 82.0142 312.48 81.8712C318.43 81.6567 320.25 80.2266 321.58 79.3686C321.79 79.2256 322 78.582 322 78.582Z" fill="#3D2624"/>
<path d="M287.56 107.327C287.56 107.327 288.54 107.827 292.46 108.614C296.38 109.4 305.76 107.327 305.76 107.327C305.76 107.327 298.83 106.111 296.66 106.254C294.42 106.397 292.95 107.541 292.95 107.541C292.95 107.541 290.92 105.896 289.73 105.896C288.47 105.896 286.16 106.612 286.16 106.612L287.56 107.327Z" fill="#913D37"/>
<path d="M288.96 111.617C288.96 111.617 291.62 113.476 295.54 113.547C299.39 113.69 303.66 112.046 303.66 112.046C303.66 112.046 301.28 115.478 296.31 116.05C291.27 116.55 288.96 111.617 288.96 111.617Z" fill="#AF5448"/>
<path d="M241.08 366.383L257.88 329.702C257.88 329.702 269.01 341.643 303.1 342.858C337.19 344.074 383.18 326.484 383.18 326.484C383.18 326.484 394.94 357.516 394.94 369.028C394.94 380.612 327.67 426.159 327.67 426.159L287.77 423.156L241.08 366.383Z" fill="#743F3D"/>
<path d="M239.191 426.16C239.191 426.16 228.201 430.521 224.421 432.38C224.421 432.38 207.971 434.097 201.321 436.027C194.741 438.029 193.061 447.11 191.451 456.906C189.841 466.631 177.521 479.716 173.671 486.58C169.821 493.373 171.641 501.453 172.201 503.097C172.761 504.813 170.521 510.462 173.321 514.037C176.051 517.541 177.661 515.753 179.131 514.824C180.671 513.966 181.161 510.891 181.161 510.891C181.161 510.891 185.431 510.033 187.041 508.746C188.581 507.53 186.971 507.459 190.891 506.172C194.811 504.885 196.841 503.884 199.081 502.239C201.251 500.595 213.641 478.572 221.551 471.493C229.461 464.485 243.741 462.054 243.741 462.054L239.191 426.16Z" fill="#C56E5D"/>
<path d="M454.86 465.701C427.98 472.637 369.6 477.499 317.31 480.645C263.41 483.863 216.02 485.364 216.02 485.364L207.97 459.48L200.9 436.528L357.56 404.78C357.56 404.78 353.29 371.674 387.38 353.798C387.38 353.798 488.95 354.656 513.52 383.83C538.16 413.003 511.56 451.114 454.86 465.701Z" fill="#743F3D"/>
<path d="M301.91 456.62C301.91 456.62 312.97 460.982 316.75 462.769C316.75 462.769 333.2 464.486 339.78 466.488C346.43 468.49 348.11 477.499 349.72 487.295C351.33 497.019 363.65 510.176 367.43 516.969C371.28 523.762 369.46 531.842 368.9 533.486C368.41 535.202 370.58 540.923 367.85 544.426C365.12 547.93 363.51 546.142 361.97 545.284C360.43 544.426 359.94 541.28 359.94 541.28C359.94 541.28 355.74 540.422 354.13 539.206C352.52 537.919 354.2 537.919 350.21 536.632C346.29 535.274 344.26 534.273 342.09 532.628C339.92 530.984 327.46 508.961 319.55 501.953C311.64 494.874 297.43 492.443 297.43 492.443L301.91 456.62Z" fill="#C56E5D"/>
<path d="M249.69 359.947C249.69 359.947 115.85 359.947 94.3605 384.258C72.9405 408.57 84.8405 439.53 102.13 449.898C119.42 460.195 300.3 501.524 300.3 501.524L309.82 445.036L283.15 436.527L297.43 416.935L249.69 359.947Z" fill="#743F3D"/>
<path d="M249.34 365.167C249.34 365.167 277.27 400.49 292.46 411.001C292.46 411.001 261.24 407.711 249.34 365.167Z" fill="#5E3030"/>
<path d="M141.4 395.771C141.4 395.771 164.64 398.845 200.9 406.711C237.23 414.647 283.15 436.527 283.15 436.527C283.15 436.527 236.04 403.707 199.15 395.771C162.26 387.905 141.4 395.771 141.4 395.771Z" fill="#5E3030"/>
<path d="M270.9 428.519C270.9 428.519 378.84 395.627 424.06 388.12C424.06 388.12 328.44 417.436 283.15 436.527L270.9 428.519Z" fill="#5E3030"/>
<path d="M374.99 362.307C374.99 362.307 322.63 388.692 304.99 415.434C304.99 415.434 360.22 386.547 374.99 362.307Z" fill="#5E3030"/>
<path fill-rule="evenodd" clip-rule="evenodd" d="M139.86 371.459C139.86 371.459 135.45 378.61 127.05 381.97C121.03 384.33 115.71 384.83 108.57 388.12C101.43 391.48 92.6095 399.56 90.7195 395.985C88.8295 392.481 99.5395 384.473 99.5395 384.473C99.5395 384.473 92.1195 388.406 87.9195 390.479C83.7895 392.624 79.2395 395.627 79.5895 390.479C79.9395 385.403 93.1695 377.966 93.1695 377.966C93.1695 377.966 79.7995 381.684 77.6995 382.685C75.5995 383.758 69.2295 384.473 71.6095 379.682C74.0595 374.892 87.0795 371.531 87.0795 371.531C83.2295 371.388 76.8595 367.67 76.8595 363.952C76.8595 360.233 82.7395 353.655 85.0495 350.151C86.5895 347.863 88.4795 346.505 89.7395 347.005C88.9695 345.79 89.0395 344.789 90.8595 345.146C94.7095 345.861 109.41 345.718 116.9 347.077C121.24 347.935 124.04 349.079 125.58 349.937L208.39 292.591C229.25 292.806 238.14 314.9 238.14 314.9C218.05 340.641 154.7 365.811 139.86 371.459ZM108.08 354.513C105.98 353.298 97.9995 352.44 94.3595 350.866C92.9595 350.223 91.6295 349.222 90.6495 348.149C90.7895 348.65 90.8595 349.222 90.8595 349.937C90.8595 354.728 84.2795 360.948 85.1895 362.021C86.0295 363.022 92.8195 365.167 98.6995 363.022C104.58 360.948 110.11 355.8 108.08 354.513Z" fill="#C56E5D"/>
<path d="M510.79 242.182C510.79 242.182 518.28 265.706 513.17 283.225C507.99 300.743 488.25 304.675 488.25 304.675L491.4 300.671C491.4 300.671 510.86 297.311 511.98 270.068C512.96 245.828 510.79 242.182 510.79 242.182Z" fill="#3D2624"/>
<path d="M109.13 354.299C109.13 354.299 115.71 358.088 122.99 358.088C130.27 358.088 121.52 361.378 116.06 359.733C110.67 358.089 109.13 354.299 109.13 354.299Z" fill="#AF5448"/>
<path d="M132.16 367.527C132.16 367.527 127.68 367.67 121.45 370.959C115.15 374.319 111.93 382.828 110.25 381.47C108.64 380.111 113.12 367.026 132.16 367.527Z" fill="#AF5448"/>
<path d="M89.04 371.316C89.04 371.316 102.69 382.614 104.3 382.757C105.98 382.9 98.7 371.96 89.04 371.316Z" fill="#AF5448"/>
<path d="M257.25 250.118C257.25 250.118 263.97 246.472 284.55 246.472C305.13 246.472 339.36 254.695 339.36 254.695C339.36 254.695 276.22 255.052 257.25 250.118Z" fill="#EFC9B6"/>
<path d="M381.5 319.619L383.18 326.841L353.99 335.994C353.99 335.994 368.83 299.384 368.55 271.355C368.27 243.397 377.23 208.503 377.23 208.503L389.2 243.325C385.42 255.624 381.5 267.494 378.35 277.147C373.73 291.161 374.85 306.463 381.5 319.619Z" fill="#EFC9B6"/>
<path fill-rule="evenodd" clip-rule="evenodd" d="M525.63 408.427C523.81 406.925 511.35 400.776 511.35 400.776C511.35 400.776 522.97 410.572 522.34 415.72C521.78 420.797 517.86 417.007 514.15 414.075C510.51 411.215 503.86 405.996 503.86 405.996C503.86 405.996 512.96 415.863 510.44 419.009C507.92 422.084 500.71 412.502 494.34 407.855C487.97 403.278 482.79 401.777 477.33 398.273C469.63 393.411 466.06 387.047 466.06 387.047C459.13 378.967 409.5 335.708 400.05 308.608C400.05 308.608 373.52 213.437 376.53 192.129C379.54 170.893 397.6 159.881 397.6 159.881C397.6 159.881 412.16 167.818 418.74 196.42C423.71 218.228 427.98 267.494 431.06 286.943L486.5 366.597C488.25 366.24 490.56 365.954 493.64 365.954C501.2 366.025 515.69 368.957 519.54 369.028C521.43 369.028 521.36 369.958 520.38 371.031C521.64 370.744 523.25 372.461 524.37 374.963C525.98 378.896 530.6 386.475 529.9 390.122C529.27 393.769 522.27 396.2 518.49 395.628C518.49 395.628 530.67 401.419 532.14 406.568C533.68 411.716 527.52 409.857 525.63 408.427ZM522.13 386.618C523.18 385.76 517.79 378.395 518.7 373.676C518.84 372.961 518.98 372.389 519.26 371.96C518.07 372.818 516.6 373.605 515.13 373.891C511.21 374.749 503.23 374.105 500.99 374.963C498.68 375.75 503.23 381.899 508.62 385.117C514.01 388.334 521.08 387.476 522.13 386.618Z" fill="#C56E5D"/>
<path d="M499.241 375.75C499.241 375.75 492.661 379.539 485.381 379.539C478.101 379.539 486.851 382.828 492.311 381.184C497.701 379.539 499.241 375.75 499.241 375.75Z" fill="#AF5448"/>
<path d="M471.521 385.689C471.521 385.689 476.001 385.903 482.231 389.192C488.461 392.553 491.751 401.062 493.361 399.703C495.041 398.345 490.561 385.26 471.521 385.689Z" fill="#AF5448"/>
<path d="M512.96 393.482C512.96 393.482 499.31 404.78 497.63 404.923C496.02 405.066 503.3 394.054 512.96 393.482Z" fill="#AF5448"/>
<path d="M299.81 149.227C299.81 149.227 293.3 161.812 303.66 165.315C313.95 168.748 331.66 156.735 340.62 147.869C340.62 147.869 328.72 167.389 309.47 170.535C290.15 173.681 294.63 153.517 299.81 149.227Z" fill="#EFC9B6"/>
</g>
<defs>
<clipPath id="clip0_354_344">
<rect width="623" height="547" fill="white"/>
</clipPath>
</defs>
</svg>
