<svg width="300" height="300" viewBox="0 0 607 654" fill="none" xmlns="http://www.w3.org/2000/svg">
<path fill-rule="evenodd" clip-rule="evenodd" d="M288.933 104.641C290.025 105 294.669 107.257 295.428 107.257C295.728 107.206 296.002 107.042 296.2 106.793C296.398 106.544 296.506 106.227 296.506 105.9C296.506 105.572 296.398 105.255 296.2 105.006C296.002 104.757 295.728 104.593 295.428 104.542C295.064 104.542 293.607 103.79 292.636 103.365C288.933 101.698 288.538 101.534 287.84 102.384C287.676 102.593 287.573 102.849 287.545 103.12C287.517 103.392 287.564 103.666 287.682 103.909C287.799 104.151 287.981 104.35 288.204 104.48C288.426 104.611 288.68 104.667 288.933 104.641ZM321.711 134.071C319.69 136.163 317.185 137.631 314.457 138.322C314.457 138.322 311.665 138.845 313.516 139.695C314.854 140.352 316.374 140.434 317.765 139.924C321.195 138.845 323.016 135.771 322.712 134.103C322.196 133.253 322.439 133.253 321.711 134.071ZM356.947 566.986C357.862 570.062 359.105 573.014 360.65 575.782C368.662 591.805 375.461 602.302 375.127 602.302H376.159C376.341 598.803 359.132 566.626 356.947 566.986ZM380.468 560.544C379.649 560.544 378.739 559.203 381.44 565.187C385.173 573.395 393.276 589.124 398.891 595.925C403.413 599.653 385.203 567.476 380.468 560.544ZM449.606 578.529C448.604 578.823 448.513 578.529 448.877 579.575C452.292 590.153 456.792 600.287 462.292 609.79C464.811 613.06 457.042 591.347 449.606 578.529ZM503.265 562.179C502.02 561.885 501.747 561.427 504.782 568.719C507.817 576.011 516.558 592.852 517.802 592.819C518.045 592.819 518.166 592.655 518.257 592.361C514.208 581.786 509.185 571.675 503.265 562.179ZM468.817 120.664C469.121 120.664 566.544 115.857 568.001 115.072C569.64 113.764 569.245 115.726 569.701 71.9079C569.701 63.0789 570.156 31.6215 569.913 30.1827C569.245 27.861 567.091 27.8937 564.389 27.7956C544.358 27.1743 471.579 32.3736 455.554 33.093C454.765 33.093 453.915 33.093 453.915 34.3029C453.582 34.3029 459.985 118.898 459.985 119.323C460.805 121.645 462.383 120.991 468.817 120.664ZM565.179 33.0276C565.179 36.6573 564.207 110.134 564.177 110.2C564.147 110.265 464.234 115.922 464.022 116.249C464.022 115.562 458.134 55.983 456.07 35.2839C470.76 35.2185 551.916 32.2755 565.179 33.0276Z" fill="black"/>
<path fill-rule="evenodd" clip-rule="evenodd" d="M511.186 78.4806C511.945 79.4943 514.434 77.0745 518.561 74.0334C525.36 69.0303 537.591 59.8416 544.177 54.4134C548.76 46.1076 536.195 55.9176 534.768 57.0948C529.002 61.9344 513.523 75.276 511.733 76.9437C508.698 73.9353 480.502 53.1708 480.199 52.8438C477.437 52.2552 476.678 53.9556 478.105 56.1138C486.603 62.3595 510.701 77.7612 511.186 78.4806ZM539.29 199.471C510.701 199.471 490.73 215.592 487.847 249.044C485.51 276.185 498.196 293.843 514.494 301.07C529.032 307.61 545.725 309.212 560.869 301.985C569.755 297.653 577.603 291.188 583.814 283.085C603.966 255.355 585.028 199.471 539.29 199.471ZM566.272 286.355C541.415 306.956 507.119 293.45 499.866 268.925C495.404 253.883 499.502 230.241 510.185 219.614C520.868 208.986 541.84 205.651 555.497 211.21C577.774 220.268 595.65 261.993 566.272 286.355ZM165.682 91.5606C165.469 86.0997 165.257 81.3255 165.075 77.3688C166.592 77.8879 167.94 78.8636 168.96 80.181C171.388 85.413 175.212 82.8624 175.212 79.2981C174.453 74.8836 169.961 71.5155 164.832 70.5672C164.68 65.5314 164.832 66.7413 163.557 65.9565C162.07 66.6759 162.404 66.3816 162.07 70.3383C159.194 70.2091 156.359 71.0983 153.996 72.8699C151.634 74.6415 149.875 77.1979 148.989 80.1483C145.954 89.5986 153.572 92.28 160.795 95.3211C160.795 100.749 160.522 107.126 160.492 114.68C158.985 114.891 157.453 114.68 156.044 114.067C154.636 113.454 153.397 112.46 152.449 111.181C149.202 105.164 148.868 107.093 149.414 110.33C150.507 115.661 155.302 118.211 160.522 118.375C160.522 123.868 159.946 126.746 164.923 126.288C166.926 124.784 166.926 125.111 166.683 117.557C171.691 115.988 175.788 112.325 176.244 106.962C176.699 98.9508 171.206 94.5363 165.682 91.5606ZM160.856 89.4024C158.313 88.5952 156.011 87.0845 154.179 85.0206C153.542 83.5491 154.938 80.8677 155.879 79.6578C156.58 78.7604 157.46 78.0446 158.453 77.5634C159.446 77.0822 160.526 76.8481 161.615 76.8783C161.402 80.0175 161.19 84.1377 160.856 89.4024ZM166.35 113.437C166.198 107.878 166.016 102.679 165.834 97.8717C168.243 98.9884 170.172 101.044 171.236 103.627C172.996 108.368 170.72 111.475 166.471 113.437H166.35ZM325.778 106.439C328.131 105.058 330.656 104.045 333.275 103.431C333.601 103.357 333.886 103.147 334.068 102.846C334.25 102.546 334.314 102.18 334.246 101.828C334.177 101.477 333.982 101.17 333.703 100.973C333.424 100.777 333.085 100.708 332.759 100.782C332.759 100.782 323.259 103.3 323.654 105.72C323.7 105.959 323.804 106.181 323.956 106.363C324.109 106.544 324.303 106.679 324.52 106.752C324.736 106.825 324.967 106.835 325.188 106.78C325.41 106.725 325.613 106.607 325.778 106.439Z" fill="black"/>
<path fill-rule="evenodd" clip-rule="evenodd" d="M543.962 225.205C540.654 223.341 544.63 232.791 541.777 254.111C514.462 254.111 518.984 252.705 516.344 254.111C513.794 257.153 515.251 260.194 519.015 260.39C521.564 260.39 542.566 260.39 544.812 259.376C547.058 258.362 546.815 255.027 546.876 252.182C546.809 244.519 546.241 236.87 545.176 229.292C544.812 226.676 544.721 225.793 543.962 225.205ZM537.498 551.845C534.4 549.799 531.089 548.152 527.634 546.94C521.583 544.64 515.256 543.296 508.847 542.951C477.283 541.61 465.993 566.985 434.551 561.393C416.341 558.123 399.041 547.103 388.115 544.03C371.301 539.255 356.885 546.057 341.224 554.657C334.183 558.516 320.981 570.68 320.222 567.737C316.914 561.393 316.125 526.83 316.55 481.017C333.151 482.652 367.022 477.027 393.851 462.803C407.142 455.564 417.998 444.027 424.899 429.809C427.28 425.32 429.164 420.545 430.514 415.584C441.137 375.723 438.769 358.228 439.346 339.753C459.984 313.789 460.591 237.009 425.962 187.894C418.162 176.58 398.131 162.879 391.514 160.23C392.465 159.546 393.241 158.615 393.771 157.524C394.302 156.433 394.569 155.216 394.549 153.984C394.883 148.294 393.821 146.594 398.768 143.52C400.678 142.553 402.391 141.186 403.806 139.498C405.213 137.285 406.355 134.89 407.205 132.369C411.09 118.799 398.647 118.995 401.985 96.661C402.505 93.5108 402.648 90.3019 402.41 87.1126C402.312 84.3842 401.408 81.7607 399.83 79.6243C398.024 77.4113 396.484 74.9612 395.247 72.3322C393.032 64.5823 393.821 57.748 390.816 51.2407C388.749 46.9542 386.245 42.9291 383.35 39.2398C375.672 29.7568 366.809 32.0131 356.399 26.7811C352.768 24.709 349.006 22.9169 345.14 21.4183C336.832 19.4257 328.264 19.0272 319.828 20.2411C310.267 21.9415 294.394 31.7188 285.289 44.7661C283.345 47.4758 281.609 50.3521 280.099 53.3662C275.839 62.5402 272.96 72.3861 271.571 82.5346C270.903 87.9628 272.573 87.3415 270.873 92.7043C267.535 93.064 267.444 93.2275 267.322 93.9142C267.7 95.5939 268.24 97.2267 268.931 98.7865C267.959 101.893 266.988 104.999 266.715 106.079C265.592 112.619 269.082 119.159 266.169 124.456C263.771 128.772 257.489 130.996 256.184 136.424C254.423 143.586 258.065 150.42 262.861 155.848C263.282 156.452 263.834 156.934 264.469 157.254C246.866 164.448 236.244 179.457 236.335 180.406L219.582 178.051C218.519 178.051 219.885 176.416 218.277 203.852C217.709 203.279 216.96 202.963 216.182 202.969C210.689 202.969 208.807 216.245 208.322 222.131C207.593 230.633 207.563 238.481 214.119 243.451C214.64 243.844 215.199 244.173 215.788 244.432C214.938 257.807 214.028 272.783 213.087 288.773C199.968 285.278 186.508 283.489 172.994 283.443C161.24 283.235 149.557 285.455 138.577 289.983C111.262 300.382 90.503 317.419 74.0533 349.301C73.8712 349.628 64.1896 368.921 61.4277 376.115C57.3912 386.514 55.904 397.436 66.0713 400.019C68.8981 400.643 71.8306 400.405 74.5389 399.332C70.5631 418.56 58.7569 493.345 58.7266 493.77C53.9313 492.037 20.9712 481.18 16.3883 483.273C15.9007 483.504 15.5147 483.929 15.3111 484.459C15.1075 484.989 15.102 485.584 15.2957 486.118C17.572 493.77 59.2729 521.63 68.9545 526.47C73.2035 528.563 73.1428 527.614 74.5693 524.998C86.9217 502.566 106.133 450.573 119.487 427.356C115.451 475.229 130.777 541.806 143.767 587.946C137.697 592.001 117.666 602.367 110.898 609.659C110.625 609.986 101.308 617.18 107.499 620.188C109.532 621.398 117.332 620.973 126.559 619.926C130.504 619.436 168.078 614.76 169.959 611.49C171.416 609.43 169.413 599.325 168.836 595.99C167.128 584.467 166.427 572.796 166.742 561.132C167.622 519.014 184.952 471.109 197.76 451.75C201.34 456.054 203.993 461.157 205.53 466.694C204.68 517.216 205.772 560.282 210.689 580.719C213.851 595.766 222.318 608.899 234.301 617.343C265.956 639.906 323.682 637.192 358.736 626.009C372.849 621.496 390.149 613.223 405.9 614.727C417.888 615.839 425.779 622.346 446.235 626.401C475.766 632.222 485.69 621.3 502.535 613.321C520.745 604.786 533.522 600.47 552.248 607.86C558.735 610.763 564.962 614.298 570.852 618.422C574.1 620.842 573.887 621.463 575.101 621.398C575.339 621.371 575.563 621.265 575.742 621.095C575.922 620.926 576.048 620.7 576.103 620.45C576.103 619.534 578.622 624.57 537.498 551.845ZM119.669 425.1C108.47 443.346 92.1419 482.129 80.8517 506.85C74.2394 502.825 67.6027 498.846 60.9421 494.914C61.9133 490.042 75.328 402.21 75.8743 398.94C85.9202 394.885 96.3302 384.912 111.141 396.193C115.117 399.234 119.062 403.91 123.281 407.9C122.002 410.615 121.16 413.546 120.792 416.565C120.337 419.246 119.943 422.059 119.639 424.969L119.669 425.1ZM165.194 585.003C158.838 585.281 152.519 586.19 146.317 587.717C135.694 547.202 113.083 466.498 122.279 416.075C122.765 413.328 123.19 411.595 123.493 410.45C124.192 408.128 124.192 408.652 125.436 409.665C138.668 420.554 146.408 413.328 158.426 417.971C161.969 419.391 165.278 421.411 168.229 423.955C172.035 427.624 174.864 432.32 176.424 437.558C177.102 439.749 178.37 441.673 180.066 443.085C186.713 449.363 191.902 446.518 197.214 451.162C196.728 451.26 158.942 510.937 165.043 584.905L165.194 585.003ZM401.196 455.413C389.602 464.307 361.468 476.439 329.752 479.316C322.407 480.003 318.249 479.905 316.702 480.265C316.702 475.229 316.702 470.062 316.914 464.798C320.708 464.471 330.298 462.836 331.725 462.574C348.66 459.304 373.729 452.764 386.355 440.109C389.39 442.987 389.39 443.183 390.209 442.954C394.059 439.327 397.475 435.196 400.377 430.659C410.756 414.897 418.04 395.114 419.558 365.978C419.558 365.717 419.892 358.228 419.831 355.612C426.971 352.412 433.328 347.477 438.405 341.192C436.341 382.099 434.004 429.972 401.044 455.315L401.196 455.413ZM316.216 245.119C312.627 243.753 309.171 242.012 305.897 239.92C305.563 239.589 305.347 239.144 305.286 238.66C305.225 238.177 305.323 237.685 305.563 237.271C307.9 234.786 313.606 236.584 316.641 237.958C317.157 238.187 317.976 238.579 318.401 237.467C318.826 236.355 318.401 236.421 315.366 234.393C314.395 233.739 311.967 232.072 310.298 230.731C309.206 230.03 308.346 228.978 307.839 227.723C307.627 226.643 308.568 225.107 310.874 225.205C315.135 226.082 319.115 228.119 322.438 231.123C322.543 231.249 322.672 231.35 322.816 231.419C322.959 231.488 323.115 231.524 323.272 231.524C323.43 231.524 323.585 231.488 323.729 231.419C323.873 231.35 324.002 231.249 324.107 231.123C324.866 229.979 324.653 223.145 326.838 218.436C327.263 217.749 327.597 216.899 328.265 216.866C330.996 216.866 331.118 224.453 331.057 227.232C331.057 235.701 329.57 234.884 331.603 237.271C333.988 239.734 336.602 241.926 339.403 243.811C338.463 245.152 341.042 241.62 326.656 260.75C325.017 258.984 322.863 253.196 321.224 253.785C316.702 256.237 303.924 251.626 304.41 247.637C304.744 244.792 310.48 245.904 313.333 246.362C316.186 246.819 315.912 246.852 316.368 246.362C316.443 246.263 316.498 246.149 316.53 246.026C316.562 245.903 316.569 245.774 316.552 245.648C316.535 245.522 316.493 245.401 316.43 245.293C316.367 245.185 316.284 245.092 316.186 245.021L316.216 245.119ZM302.376 129.296C304.495 130.503 306.798 131.289 309.175 131.617C309.812 130.963 309.782 131.225 309.175 130.538C307.082 129.793 305.114 128.689 303.348 127.268C303.621 125.372 307.93 113.142 308.962 109.414C309.6 107.125 309.782 106.536 310.298 104.444C311.854 104.346 313.415 104.346 314.972 104.444C314.994 107.716 315.464 110.966 316.368 114.09C318.978 118.766 330.814 119.061 335.852 118.832C340.891 118.603 342.924 118.341 344.957 115.235C342.56 124.844 341.195 134.719 340.891 144.665C339.451 147.547 337.454 150.062 335.035 152.042C332.617 154.022 329.832 155.42 326.869 156.142C311.906 158.693 304.015 155.161 295.517 142.408C291.226 135.941 288.465 128.443 287.475 120.565C292.943 120.853 298.406 119.884 303.499 117.72C300.252 127.105 300.646 128.151 302.376 129.296ZM317.551 94.2412C321.193 93.4891 340.253 94.4374 350.633 94.6663C349.449 97.9363 347.871 103.332 346.293 109.512C345.416 112.078 344.144 114.466 342.529 116.575C340.284 117.949 325.807 117.654 320.161 114.352C317.46 112.815 317.46 112.586 317.46 94.2412H317.551ZM332.18 156.96L331.907 157.385C329.214 162.236 326.169 166.85 322.802 171.184C321.679 169.386 316.732 161.374 315.548 159.085C319.382 159.494 323.249 159.362 327.051 158.693C328.834 158.408 330.565 157.823 332.18 156.96ZM295.76 163.238C296.488 172.077 297.93 180.83 300.07 189.398C296.2 188.365 292.278 187.568 288.324 187.011C289.842 182.76 295.214 164.546 295.699 163.173L295.76 163.238ZM297.824 158.235C299.956 157.277 301.99 156.082 303.894 154.671C306.982 156.935 310.513 158.401 314.213 158.955C315.952 163.678 318.106 168.211 320.647 172.492C304.288 189.104 303.56 190.15 305.138 189.889C308.173 189.202 319.737 177.136 321.861 174.912C324.441 177.724 335.397 193.028 337.491 195.579C338.554 196.494 339.191 195.35 340.223 194.303C344.563 189.921 346.627 187.992 347.719 187.076C322.377 263.693 337.006 228.573 331.543 217.226C331.239 216.321 330.63 215.573 329.836 215.131C329.043 214.688 328.125 214.584 327.263 214.839C326.524 215.258 325.872 215.838 325.35 216.541C324.828 217.244 324.446 218.057 324.228 218.926C324.684 205.127 324.926 196.036 324.775 193.453C324.775 192.799 326.656 193.028 301.041 189.464C301.071 189.071 297.824 158.497 297.763 158.17L297.824 158.235ZM326.11 261.829C324.987 263.464 323.986 265.099 323.075 266.276C323.075 263.202 323.379 260.455 323.53 258.101C324.165 259.471 325.017 260.711 326.049 261.763L326.11 261.829ZM322.711 275.497C339.464 328.308 362.803 373.597 412.425 358.326C414.58 357.672 416.674 356.92 418.769 356.037C418.769 386.219 410.301 420.129 389.815 440.73C368.069 418.829 344.326 399.35 318.947 382.59C319.615 348.549 321.284 303.619 322.65 275.432L322.711 275.497ZM368.236 162.225C372.189 162.805 376.081 163.791 379.86 165.167C381.306 165.767 382.906 165.767 384.352 165.167C386.069 164.487 387.684 163.539 389.147 162.355C394.458 162.879 412.486 176.155 420.408 184.559C429.513 194.369 439.862 214.479 445.962 237.5C454.157 269.677 456.19 322.945 430.484 345.41C416.25 357.836 393.457 361.76 378.373 355.841C348.599 344.494 333.91 302.573 323.743 270.396C324.623 266.603 342.317 243.713 344.502 240.966C365.322 240.378 405.384 272.914 410.513 285.111L411.424 284.653C406.871 273.732 375.945 246.754 353.577 240.279C354.275 233.936 355.489 215.885 355.489 215.558C362.591 215.002 370.36 216.114 370.664 213.956C370.846 210.13 364.594 170.367 363.319 163.206C364.829 162.489 366.465 162.132 368.114 162.159L368.236 162.225ZM357.704 165.789C359.284 165.187 360.834 164.5 362.348 163.729C362.348 164.056 367.963 212.354 367.993 212.779C352.181 213.433 353.122 211.667 352.97 218.207C352.97 218.501 352.545 237.369 352.484 240.181C350.997 239.789 344.502 238.416 343.379 239.298C342.894 239.822 341.892 241.032 340.557 242.568C339.221 241.489 336.277 239.298 334.274 237.304C336.459 232.17 331.087 245.479 357.583 165.723L357.704 165.789ZM348.599 185.147C345.116 187.496 341.799 190.119 338.675 192.995C336.126 189.267 328.204 178.051 324.38 173.637C327.878 169.603 330.647 164.901 332.544 159.772C333.013 158.743 333.321 157.639 333.455 156.502C336.433 154.704 339.036 152.267 341.103 149.341C341.862 159.576 345.504 167.162 354.821 166.508C353.304 170.236 351.331 176.122 348.387 185.082L348.599 185.147ZM284.864 80.5072C286.776 84.0061 286.685 84.5947 288.537 85.6411C290.64 86.7048 292.953 87.1988 295.274 87.0799C299.523 86.4913 302.255 82.0114 306.292 81.4882C307.081 81.4882 316.216 88.2244 321.467 86.4259C326.717 84.6274 329.418 80.2456 333.212 82.2403C337.006 84.235 338.705 89.7286 346.9 86.8183C349.479 85.6102 351.931 84.1083 354.214 82.3384C353.643 85.7703 352.79 89.1408 351.665 92.41C344.563 91.8868 324.35 91.102 318.735 91.5271C316.034 91.7233 314.668 91.5271 314.881 98.95C312.482 98.7409 310.068 98.8286 307.688 99.2116C307.718 97.8353 307.658 96.4583 307.506 95.0914C307.141 92.41 306.504 92.1157 304.956 91.8214C303.408 91.5271 293.787 91.8214 284.47 91.9849C283.956 88.1317 283.997 84.2161 284.591 80.3764L284.864 80.5072ZM305.017 94.6336C305.565 101.25 305.279 107.916 304.167 114.45C300.768 118.93 282.133 120.532 279.644 118.178C276.791 114.057 271.51 99.277 270.236 95.2876C275.79 95.0914 304.744 93.5872 304.744 94.5028L305.017 94.6336ZM265.592 157.745C274.773 161.089 284.597 161.832 294.121 159.903C292.148 165.756 288.567 179.523 285.836 186.455C285.684 186.913 239.855 180.308 239.248 179.915C260.463 155.783 261.92 161.113 265.592 157.745ZM214.452 242.568C209.02 238.35 208.929 231.189 209.657 223.995C209.886 220.466 210.445 216.971 211.326 213.563C211.868 210.815 212.978 208.233 214.574 206.01C215.363 205.062 216.547 204.669 217.123 205.617C217.123 205.944 217.882 205.846 217.943 209.738C217.943 217.586 216.061 220.365 217.943 220.659C218.277 220.659 231.479 214.904 233.907 219.548C234.999 222.098 231.813 223.145 228.292 224.387C221.736 226.709 220.917 226.186 221.069 227.657C221.22 229.129 222.89 227.657 228.687 228.377C231.145 228.671 234.969 230.175 233.603 232.431C232.875 234.034 226.562 234.688 224.498 234.949C221.463 235.342 220.705 235.113 220.644 236.323C220.583 237.533 222.04 237.402 224.832 237.729C232.268 238.612 232.238 240.312 232.359 240.639C233.087 245.25 219.035 246.165 214.452 242.568ZM327.506 629.933C311.319 632.436 294.893 632.568 278.673 630.325C246.259 626.303 221.281 613.648 212.814 580.032C199.824 528.595 213.269 312.873 217.093 244.923C222.07 246.656 229.749 246.558 232.845 243.68C233.388 243.235 233.776 242.606 233.947 241.894C234.118 241.182 234.061 240.429 233.785 239.756C233.325 238.987 232.719 238.33 232.008 237.829C231.297 237.328 230.497 236.993 229.658 236.846C227.624 236.257 228.929 236.846 232.693 235.767C237.367 234.393 237.609 228.311 231.115 226.611C229.445 226.186 229.324 226.611 230.417 226.055C232.996 225.074 236.274 223.831 236.487 220.856C236.534 220.069 236.387 219.283 236.062 218.577C235.737 217.87 235.245 217.269 234.635 216.833C231.115 214.021 223.588 216.212 219.46 217.749C219.46 216.408 220.796 209.28 219.46 205.421C220.189 191.458 220.522 182.139 220.31 179.261C327.749 195.055 324.137 194.271 323.5 194.271C323.5 201.726 323.014 213.433 322.468 228.246C318.826 225.63 311.937 221.346 308.021 223.472C307.344 223.817 306.767 224.355 306.352 225.027C305.936 225.699 305.699 226.481 305.664 227.287C305.63 228.094 305.8 228.896 306.157 229.606C306.513 230.316 307.042 230.909 307.688 231.32C310.723 234.328 311.846 233.968 310.085 233.838C304.835 233.445 302.771 236.519 303.53 239.429C303.833 240.186 304.278 240.867 304.837 241.429C305.395 241.992 306.056 242.424 306.777 242.699C310.783 244.89 310.176 243.68 306.777 244.138C302.528 244.694 301.314 248.879 305.897 252.019C308.207 253.546 310.778 254.558 313.457 254.996C316.137 255.434 318.87 255.289 321.497 254.569C321.497 254.896 317.4 321.702 315.912 410.843C313.667 489.944 312.877 561.263 318.462 569.438C321.011 589.613 339.707 618.488 360.466 622.706C349.71 626.204 338.676 628.623 327.506 629.933ZM569.426 614.433C556.922 606.258 546.451 600.96 531.003 601.353C499.378 602.53 487.602 630.783 448.39 623.883C419.285 618.847 413.791 607.141 386.719 613.713C377.796 615.872 371.301 618.88 362.621 621.856C344.411 618.357 324.562 590.725 319.858 570.419C319.858 570.419 346.354 554.33 353.668 550.799C384.261 536.77 391.454 550.145 421.409 560.282C447.207 569.045 455.674 564.238 478.103 553.251C490.941 546.94 500.896 543.637 515.039 546.024C522.192 547.192 529.116 549.635 535.525 553.251C573.402 620.417 571.035 615.512 569.426 614.433ZM124.434 74.8501C118.607 88.486 117.423 109.087 123.949 121.317C126.529 126.016 129.846 130.198 133.752 133.677C139.707 138.327 146.528 141.528 153.744 143.058C160.959 144.588 168.398 144.411 175.544 142.539C184.599 139.758 192.755 134.311 199.095 126.81C202.799 122.644 205.55 117.606 207.131 112.094C208.711 106.582 209.077 100.75 208.2 95.0587C205.712 74.1307 190.203 51.8293 163.464 51.7312C147.197 51.6658 131.476 58.8598 124.434 74.8501ZM195.15 127.955C182.403 140.381 168.26 144.926 150.808 139.89C146.53 138.801 142.435 137.003 138.668 134.56C132.483 130.455 127.563 124.47 124.525 117.36C118.213 102.024 121.855 78.1201 131.809 66.3154C155.027 38.782 204.224 54.4126 206.713 95.2222C207.745 111.376 202.677 120.663 195.15 127.955Z" fill="#3D2624"/>
<path fill-rule="evenodd" clip-rule="evenodd" d="M130.263 54.6088C122.493 60.9483 116.967 69.9594 114.603 80.1475C106.014 110.362 117 134.855 136.606 144.926C150.504 152.181 166.439 153.479 181.191 148.556C192.815 144.141 205.895 133.677 211.541 122.396C220.403 104.444 218.127 75.5695 197.883 55.9822C183.376 42.1501 153.36 36.7546 130.263 54.6088ZM200.493 132.827C185.773 147.019 168.838 152.447 148.534 146.627C141.479 144.822 134.886 141.348 129.231 136.457C104.951 114.45 107.44 54.9358 153.511 46.8262C196.001 39.2725 215.152 76.7467 214.211 103.201C214.005 108.905 212.675 114.496 210.31 119.604C207.945 124.712 204.599 129.219 200.493 132.827Z" fill="black"/>
</svg>
