<svg width="300" height="400" viewBox="0 0 478 500" fill="none" xmlns="http://www.w3.org/2000/svg">
<path d="M364.152 211.45C363.15 211.45 363.15 213.4 364.152 213.4C366.537 213.4 399.761 212.825 402.551 212.25C402.806 212.21 403.038 212.076 403.205 211.872C403.373 211.668 403.465 211.407 403.465 211.138C403.465 210.868 403.373 210.608 403.205 210.404C403.038 210.2 402.806 210.065 402.551 210.025C393.798 208.825 373.788 211.25 364.152 211.45ZM377.461 262.5C376.363 262.5 376.554 264.425 377.604 264.475C385.379 264.75 397.495 264.325 405.437 263.95C406.892 263.95 407.059 261.45 405.437 261.45C396.541 261.5 386.381 261.625 377.461 262.5ZM378.486 176.275C378.255 176.286 378.035 176.384 377.868 176.551C377.701 176.719 377.597 176.944 377.577 177.186C377.557 177.428 377.621 177.669 377.757 177.864C377.894 178.06 378.093 178.197 378.319 178.25C382.588 178.8 396.446 179.375 400.619 177.525C400.833 177.414 401.006 177.233 401.113 177.01C401.22 176.786 401.254 176.533 401.211 176.287C401.168 176.041 401.05 175.817 400.874 175.648C400.699 175.479 400.475 175.374 400.238 175.35C394.705 175 385.832 176.85 378.486 176.275ZM351.249 224.575C371.379 224.275 394.18 222.8 414.5 220.85C415.765 220.85 415.645 218.35 414.334 218.35C394.347 218.875 370.997 220.25 351.13 222.4C350.854 222.417 350.597 222.547 350.413 222.763C350.23 222.979 350.136 223.262 350.152 223.55C350.167 223.839 350.292 224.109 350.498 224.301C350.703 224.493 350.974 224.592 351.249 224.575ZM380.108 113.225C385.713 112.775 391.318 112.425 396.803 111.725C398.378 111.55 397.972 109.225 396.422 109.225C390.841 109.675 385.26 110.425 379.726 111.1C378.438 111.25 378.796 113.325 380.108 113.225ZM347.385 165.375C346.192 165.375 346.145 167.5 347.385 167.6C360.869 168.259 374.38 167.269 387.645 164.65C389.147 164.375 388.909 161.875 387.382 162.15C374.173 164.511 360.784 165.591 347.385 165.375ZM391.771 125.2C393.846 125.725 394.156 122.175 392.248 122.525C382.939 124.107 373.504 124.718 364.08 124.35C362.816 124.35 362.53 126.275 363.818 126.425C373.144 127.407 382.556 126.994 391.771 125.2ZM340.111 223.4C338.25 222.65 329.664 223.9 327.255 224.175C326.086 224.175 326.039 226.15 327.255 226.125L337.01 225.8C341.518 225.625 341.494 223.975 340.111 223.4ZM349.961 331.575C347.957 331.075 333.719 332.2 331.381 332.35C330.141 332.35 330.38 334.35 331.62 334.325C334.148 334.325 348.005 334.325 350.199 333.6C351.177 333.25 350.843 331.775 349.961 331.575ZM331.357 321C338.059 321.325 354.659 321.625 361.361 319.95C361.518 319.949 361.673 319.913 361.815 319.846C361.958 319.778 362.085 319.68 362.19 319.557C362.294 319.434 362.372 319.29 362.42 319.134C362.468 318.978 362.484 318.813 362.467 318.65C362.451 318.486 362.401 318.329 362.323 318.187C362.245 318.045 362.139 317.921 362.012 317.825C361.885 317.728 361.741 317.661 361.588 317.626C361.434 317.592 361.276 317.592 361.123 317.625C351.32 317.625 342.233 319.35 331.644 318.9C330.38 318.85 330.046 320.925 331.357 321ZM354.492 276.55C355.924 276.275 355.804 274.05 354.302 274.05C343.712 275.175 341.494 275.45 330.642 275.9C329.592 275.9 329.473 277.8 330.642 277.875C338.614 278.43 346.621 277.985 354.492 276.55ZM369.184 260.825C356.21 261.325 342.734 263.625 329.187 264.125C328.945 264.164 328.724 264.293 328.565 264.488C328.405 264.683 328.317 264.931 328.317 265.188C328.317 265.444 328.405 265.693 328.565 265.888C328.724 266.083 328.945 266.211 329.187 266.25C340.421 266.25 358.499 265.7 369.447 263.15C369.675 263.044 369.865 262.864 369.989 262.637C370.113 262.409 370.164 262.146 370.134 261.886C370.105 261.626 369.997 261.383 369.826 261.192C369.655 261.001 369.43 260.872 369.184 260.825ZM413.38 325.45C413.189 325.45 400.095 326.575 397.853 326.5C397.64 326.54 397.446 326.651 397.299 326.816C397.151 326.981 397.058 327.192 397.034 327.416C397.01 327.641 397.056 327.868 397.165 328.063C397.273 328.259 397.44 328.412 397.638 328.5C400.309 329.025 411.567 329.225 413.88 327.175C413.997 327.041 414.078 326.877 414.116 326.699C414.154 326.522 414.148 326.338 414.097 326.164C414.047 325.99 413.954 325.833 413.828 325.708C413.702 325.583 413.548 325.494 413.38 325.45ZM417.601 270.925C401.073 272.05 382.612 272.7 366.155 274.175C364.867 274.175 365.106 276.2 366.346 276.275C375.242 276.55 406.892 274.85 417.816 273.4C417.972 273.388 418.124 273.343 418.262 273.268C418.401 273.192 418.525 273.089 418.625 272.963C418.725 272.837 418.8 272.691 418.845 272.535C418.89 272.378 418.905 272.213 418.889 272.05C418.859 271.723 418.707 271.421 418.465 271.21C418.224 271 417.914 270.897 417.601 270.925ZM355.518 214.075C355.834 214.075 356.138 213.943 356.361 213.709C356.585 213.475 356.711 213.157 356.711 212.825C356.711 212.494 356.585 212.176 356.361 211.941C356.138 211.707 355.834 211.575 355.518 211.575C345.238 211.85 334.863 211.925 324.512 212.75C324.29 212.802 324.091 212.932 323.948 213.118C323.806 213.305 323.728 213.536 323.728 213.775C323.728 214.014 323.806 214.246 323.948 214.432C324.091 214.619 324.29 214.748 324.512 214.8C334.911 215 345.238 214.425 355.518 214.075ZM396.183 315C392.558 315 379.488 315.975 376.387 316.55C375.386 316.725 375.242 318.45 376.387 318.5C379.75 318.675 392.749 317.8 396.517 317.45C397.972 317.5 397.662 315 396.183 315ZM389.219 329.025L359.239 331.025C357.879 331.025 358.213 333.2 359.549 333.125C365.368 332.85 384.091 332.075 389.338 331.325C390.507 331.175 390.531 329.025 389.219 329.025ZM367.753 111.725C358.953 110.675 331.334 112.425 321.96 113.425C320.672 113.55 320.577 115.65 321.96 115.525C337.368 114.475 352.37 114.125 367.777 114.175C368.046 114.115 368.287 113.959 368.459 113.734C368.631 113.509 368.724 113.228 368.721 112.94C368.718 112.652 368.62 112.373 368.444 112.152C368.267 111.93 368.024 111.78 367.753 111.725ZM370.305 179.2C371.808 178.975 371.259 176.7 369.757 176.7C354.405 178.533 338.96 179.368 323.511 179.2C323.286 179.238 323.082 179.358 322.935 179.539C322.788 179.72 322.707 179.95 322.707 180.188C322.707 180.426 322.788 180.656 322.935 180.837C323.082 181.018 323.286 181.138 323.511 181.175C339.134 181.964 354.793 181.303 370.305 179.2ZM354.111 126.85C354.268 126.835 354.42 126.787 354.559 126.709C354.698 126.631 354.821 126.525 354.921 126.397C355.021 126.269 355.096 126.122 355.141 125.964C355.186 125.806 355.201 125.64 355.184 125.475C355.169 125.311 355.123 125.151 355.049 125.005C354.975 124.859 354.874 124.731 354.752 124.626C354.63 124.521 354.49 124.443 354.339 124.396C354.188 124.348 354.029 124.333 353.872 124.35C343.354 125.725 333.385 125.775 323.01 126.725C321.913 126.85 321.793 128.725 323.01 128.775C333.408 128.951 343.804 128.308 354.111 126.85ZM324.56 166.425C323.367 166.425 323.344 168.4 324.703 168.45C328.984 168.873 333.287 168.99 337.582 168.8C337.776 168.71 337.94 168.562 338.055 168.376C338.171 168.19 338.232 167.972 338.232 167.75C338.232 167.528 338.171 167.311 338.055 167.124C337.94 166.938 337.776 166.791 337.582 166.7C337.153 166.45 326.754 166.425 324.56 166.425ZM294.794 180.825C296.178 180.825 301.306 171.925 304.192 168.875C305.241 167.775 303.524 165.925 302.45 166.975C299.408 169.85 296.773 173.167 294.628 176.825L288.593 171C287.353 169.8 285.755 171.85 286.9 173.075C288.045 174.3 293.03 180.825 294.794 180.825ZM278.481 140C288.259 140.6 298.42 140.4 309.153 140.475C309.916 140.475 310.369 138.25 309.153 111.7C309.153 109.775 308.986 108.35 308.962 107.825C308.968 107.748 308.958 107.67 308.934 107.597C308.909 107.523 308.87 107.456 308.819 107.4C308.127 106.625 303.619 106.675 293.483 106.95C276.43 107.375 274.545 107.25 274.545 108.275C274.474 108.475 275.547 139.7 278.481 140ZM279.148 138.15C277.956 131.475 277.097 117.375 276.358 109.475C283.298 109.9 299.111 109.075 307.078 108.875C307.078 108.875 307.507 131.1 307.698 138.275C298.348 138.05 288.593 137.675 279.053 138.025L279.148 138.15Z" fill="black"/>
<path d="M312.444 187.35C314.447 186.525 312.11 163.225 311.776 157.1C311.759 156.974 311.7 156.858 311.609 156.775C310.178 155.475 279.911 157.2 278.385 157.325C276.858 157.45 278.385 166.15 278.647 172.075C279.196 186.825 279.84 188.1 280.555 188.2C285.755 188.975 307.673 189.3 312.444 187.35ZM279.84 159.375C290.167 158.675 300.637 158.625 309.939 158.575C310.178 164.425 310.559 180.9 311.036 185.35C301.316 186.404 291.534 186.696 281.772 186.225C282.177 182.5 280.198 163.6 279.84 159.375ZM299.254 222.5L304.788 217.25C304.949 216.964 305.02 216.632 304.99 216.301C304.961 215.971 304.833 215.658 304.624 215.409C304.415 215.159 304.136 214.985 303.827 214.912C303.518 214.838 303.195 214.869 302.903 215C300.638 216.463 298.582 218.255 296.798 220.325L291.837 215.525C291.568 215.263 291.211 215.124 290.844 215.138C290.477 215.152 290.131 215.318 289.881 215.6C289.631 215.882 289.498 216.256 289.512 216.64C289.525 217.025 289.684 217.388 289.952 217.65L294.723 222.65C290.429 227.4 288.545 230.375 288.975 231.725C289.404 233.075 290.954 232.475 291.36 231.875C293.029 229.725 294.913 227.275 296.941 225C298.95 227.3 301.18 229.377 303.595 231.2C303.844 231.268 304.106 231.264 304.353 231.188C304.6 231.113 304.824 230.969 304.999 230.772C305.175 230.575 305.297 230.332 305.352 230.069C305.407 229.805 305.393 229.531 305.312 229.275C303.517 226.807 301.487 224.537 299.254 222.5ZM300.518 115.325C296.708 118.817 293.596 123.066 291.36 127.825C289.563 125.57 287.495 123.57 285.206 121.875C283.799 120.85 281.986 122.8 283.37 123.9C286.09 126.42 288.633 129.144 290.978 132.05C291.598 132.725 292.194 132.375 292.719 131.65C295.316 126.346 298.52 121.393 302.259 116.9C303.404 115.575 301.758 114.1 300.518 115.325ZM299.755 278.55C300.995 277.65 305.718 268.1 308.461 264.85C309.534 263.6 307.673 261.875 306.457 263.2C303.192 266.726 300.392 270.694 298.133 275L292.576 270C291.36 268.925 289.738 270.85 291.002 272.125C292.266 273.4 297.704 280.4 299.755 278.55ZM317.953 310.6C317.047 308.725 284.419 310.6 284.109 310.6C284.038 310.609 283.97 310.637 283.912 310.68C283.853 310.724 283.806 310.782 283.775 310.85C282.678 312.7 283.775 342.775 284.562 345.575C285.492 348.975 317.118 346.15 318.692 346.3C318.74 346.311 318.789 346.311 318.837 346.3C318.884 346.289 318.929 346.267 318.967 346.236C319.006 346.205 319.037 346.166 319.06 346.121C319.083 346.075 319.096 346.026 319.098 345.975C319.599 342.15 318.072 310.85 317.953 310.6ZM285.635 312.425C295.176 312.85 306.457 312.225 316.14 312.2C316.283 316.375 317.142 340.875 317.261 344.175C306.672 344.675 297.775 344.5 286.494 344.175C286.613 340 285.779 316.225 285.635 312.5V312.425Z" fill="black"/>
<path d="M297.155 328.625C298.849 328.625 307.506 329.25 308.198 328.85C308.38 328.741 308.536 328.59 308.653 328.408C308.771 328.226 308.846 328.017 308.874 327.799C308.902 327.582 308.881 327.36 308.813 327.152C308.746 326.944 308.633 326.755 308.484 326.6C307.22 325.2 299.23 325.5 297.895 325.775C296.082 326.125 295.748 326.85 295.796 327.4C295.859 327.734 296.028 328.036 296.274 328.258C296.52 328.48 296.831 328.609 297.155 328.625ZM300.375 255.25C292.552 255.4 284.324 255.7 282.964 255.8C282.439 255.8 281.891 256.275 281.819 261.475C281.819 267.7 282.845 287.425 285.23 287.6C290 287.975 314.662 288.075 317.834 287.825C318.335 287.825 318.74 287.825 317.834 274.825C317.333 268.125 316.212 255.95 316.212 255.95C316.116 255.45 316.069 255 300.375 255.25ZM314.423 257.45C314.995 266.775 315.306 276.325 316.26 285.7H285.922C284.991 276.675 284.371 267.375 283.703 257.825L314.423 257.45ZM288.593 241.175C298.276 241.175 314.471 239.8 314.614 239.725C316.14 238.9 314.614 216.325 314.113 206.675C314.113 204.95 305.694 204.925 298.705 205.2C295.653 205.2 280.484 206.05 280.531 208.325C281.342 241.8 281.151 240.175 281.748 240.525C283.98 241.135 286.293 241.355 288.593 241.175ZM283.56 238.675C283.012 228.825 282.821 218.375 282.439 208.675C292.343 207.753 302.288 207.402 312.229 207.625C312.229 211.05 312.873 233.825 313.278 237.625C309.748 237.875 287.257 238.05 283.632 238.7L283.56 238.675Z" fill="black"/>
<path d="M462.702 278.175C456.453 100 459.077 101.5 457.932 100.45C456.31 98.85 443.789 99.9 440.712 100.075L439.424 72.75C439.485 72.5852 439.508 72.4073 439.49 72.2314C439.472 72.0555 439.413 71.8868 439.32 71.7396C439.226 71.5923 439.1 71.471 438.952 71.3857C438.804 71.3005 438.639 71.254 438.47 71.25C388.384 70.6 336.843 74.075 285.158 77.75C271.23 78.775 256.752 79.675 242.585 81.25C242.453 81.2277 242.317 81.2365 242.188 81.2757C242.06 81.315 241.941 81.3838 241.84 81.477C241.74 81.5703 241.66 81.6858 241.608 81.8151C241.555 81.9445 241.531 82.0845 241.536 82.225C244.159 148.975 251.792 256.875 264.981 376.35C265.124 377.725 276 376.525 285.779 375.85C285.907 378.791 286.412 381.701 287.281 384.5C288.712 386.4 465.636 374.9 465.421 367C464.658 337.325 463.632 307.275 462.702 278.175ZM449.298 356.125C386.571 366.125 330.165 368.925 267.175 374.625C254.701 261.35 249.573 183.65 243.325 83C262.691 81.8 334.315 74.9 437.778 73.475C440.354 146.15 449.942 348.125 449.227 356.125H449.298ZM149.902 184.25C148.28 184.25 148.304 187.55 149.067 188.8C149.155 188.983 149.293 189.135 149.462 189.237C149.632 189.339 149.826 189.387 150.021 189.375C151.476 189.2 151.404 184.425 149.902 184.25ZM141.387 198.7C142.413 198.975 145.179 199.15 145.823 198.15C146.73 196.75 144.273 184.05 143.963 183.15C143.899 182.966 143.775 182.812 143.613 182.716C143.451 182.619 143.262 182.585 143.078 182.621C142.895 182.657 142.73 182.761 142.613 182.912C142.495 183.064 142.433 183.255 142.437 183.45C142.437 185.725 143.415 193.45 143.796 196.675L141.411 196.825C141.237 196.903 141.088 197.032 140.982 197.197C140.877 197.362 140.819 197.556 140.816 197.754C140.814 197.953 140.867 198.148 140.968 198.316C141.069 198.484 141.215 198.617 141.387 198.7ZM147.875 179.575C148.581 179.372 149.323 179.353 150.038 179.518C150.753 179.684 151.418 180.029 151.977 180.525C152.907 181.4 154.696 179.725 152.144 178.025C150.307 176.725 146.014 176.275 146.467 178.575C146.541 178.895 146.726 179.175 146.987 179.36C147.247 179.545 147.563 179.622 147.875 179.575Z" fill="black"/>
<path d="M217.804 270.45C202.468 254.6 174.873 235.975 150.069 232.275C150.48 230.789 150.48 229.211 150.069 227.725C151.957 226.07 153.712 224.256 155.316 222.3C158.727 218.1 158.655 214 153.789 216.075C158.56 205.025 158.56 181.075 156.842 167.625C164.832 172.85 178.308 167.825 176.662 157.625C187.514 161.05 194.574 138.45 180.788 134.375C182.72 117.275 161.827 114.8 155.435 124.775C151.834 113.75 135.281 119.55 136.474 128.2C129.009 119.8 112.886 122.725 110.644 133.2C103.894 126.775 92.7558 129.5 93.7337 138.975C83.0486 133.775 77.396 147.175 85.696 151.475C80.3774 154.475 80.5443 166.825 88.7012 166.825C88.7012 175.075 93.4713 193.975 105.277 204.325C106.541 215.9 104.276 221.825 100.34 232.55C61.4162 238.75 31.8653 270.575 18.6044 310.05C3.48311 355.05 10.6621 397.55 55.4774 406.5C55.3841 412.505 54.7129 418.485 53.4739 424.35C53.4516 424.571 53.5061 424.793 53.6274 424.976C53.7488 425.158 53.9289 425.289 54.1346 425.344C54.3404 425.398 54.5581 425.373 54.7477 425.273C54.9374 425.174 55.0864 425.005 55.1673 424.8C56.7638 418.975 57.6297 412.958 57.7432 406.9C68.5398 408.582 79.5694 406.817 89.3961 401.837C99.2228 396.856 107.391 388.89 112.838 378.975C119.742 381.724 126.789 384.061 133.946 385.975C156.461 392.65 185.821 399.275 213.631 391.375C213.082 405.35 212.319 416.55 211.126 427.675C211.126 428.775 212.581 429.1 212.748 428C213.678 422.15 215.992 396.475 215.849 390.7C233.546 385 245.376 372.125 248.285 355.4C253.366 327.05 241.917 295.225 217.804 270.45ZM116.511 162.775C117.131 170.075 116.511 175.275 114.388 178.65C113.601 179.875 112.409 181.15 111.383 181.15C110.596 180.25 105.444 174.65 100.579 177.925C97.4067 180.1 97.2636 184.325 100.269 189.825C102.417 193.165 103.953 196.895 104.8 200.825C95.6656 190.425 92.8751 180.675 90.7762 166.7C93.2007 166.241 95.4136 164.959 97.0728 163.05C101.247 169.55 111.455 168.25 116.511 162.775ZM101.724 179.575C104.943 177.5 107.925 180 110.644 182.5C112.242 183.975 114.865 181.9 116.106 180C119.349 175.3 119.063 167.5 118.634 163.6C120.949 165.911 124.023 167.2 127.22 167.2C130.417 167.2 133.491 165.911 135.806 163.6C136.283 170.8 150.689 172.45 154.481 166.475C156.222 178.975 157.057 206 151.285 217.325C146.515 219.525 135.663 224.55 130.273 222.325C125.646 220.4 123.308 213 117.918 209.825C114.293 207.725 111.192 210.1 113.72 214.35C120.112 225 119.54 229.05 114.484 240C110.052 238.734 105.908 236.549 102.296 233.575C107.543 225.7 108.974 211.65 107.662 202.3C106.494 193.975 105.277 194.475 102.129 188.325C100.674 185.8 99.3863 181.125 101.724 179.575ZM141.96 230C141.769 230.092 141.618 230.254 141.534 230.456C141.45 230.657 141.439 230.884 141.504 231.093C141.568 231.302 141.704 231.479 141.884 231.591C142.065 231.703 142.278 231.741 142.484 231.7C144.529 231.317 146.468 230.463 148.161 229.2C148.298 231.531 147.712 233.846 146.491 235.8C146.062 236.425 146.825 238.3 148.375 235.975C148.256 242.875 144.893 251.4 138.43 254.75C134.049 253.92 129.88 252.147 126.186 249.544C122.491 246.941 119.351 243.563 116.964 239.625C124.119 226.775 117.823 217.125 115.724 213.125C114.555 210.825 115.152 210.475 117.06 211.775C121.567 214.775 125.526 223.15 129.891 224.275C138.12 226.35 148.256 221.15 153.217 218.825C155.793 217.6 157.295 216.775 154.195 220.85C150.045 226.225 147.684 227.35 141.96 230ZM41.0239 336.7C40.9376 336.903 40.9241 337.132 40.9859 337.345C41.0477 337.558 41.1806 337.74 41.3603 337.859C41.54 337.977 41.7544 338.024 41.9642 337.99C42.174 337.956 42.3652 337.844 42.5026 337.675C63.4196 303.125 98.0268 279.15 115.843 242.175C118.61 248.625 130.44 256.925 137.738 256.925C137.738 263.15 137.142 270.55 136.522 277.65C129.366 275.925 110.024 269.575 106.541 261.275C106.136 260.25 104.562 260.95 104.943 261.975C108.211 271.25 128.389 278.7 136.307 280.275C134.634 298.955 131.321 317.433 126.409 335.475C122.808 348.975 118.181 365.3 111.502 377.375C106.178 387.302 98.032 395.242 88.1988 400.086C78.3657 404.93 67.3356 406.438 56.646 404.4C12.6179 396.3 5.98742 354.675 20.9417 310.7C34.9182 269.5 65.5185 240.5 100.817 235C104.654 237.965 108.849 240.386 113.291 242.2C95.4032 278.375 61.2969 302.125 41.0239 336.7ZM128.46 336.525C151.636 326.287 176.26 320.113 201.347 318.25C208.503 317.75 215.658 317.775 222.813 317.775C223.862 317.775 223.886 315.975 222.813 315.975C217.947 315.621 213.067 315.529 208.193 315.7C207.024 305.7 189.828 276.525 183.984 268.45C183.835 268.301 183.639 268.214 183.434 268.205C183.228 268.195 183.026 268.263 182.864 268.396C182.702 268.529 182.591 268.719 182.552 268.931C182.512 269.143 182.547 269.362 182.649 269.55C194.359 286.75 203.828 308.65 205.712 315.8C184.747 316.625 152.406 321.825 129.128 333.775C131.322 325.35 139.813 290.6 140.004 256.275C146.563 253.2 151.237 242.075 150.689 234.6C175.418 240.503 198.099 253.485 216.206 272.1C237.457 293.925 250.48 322.1 246.473 352.725C244.35 370.225 232.496 383.775 214.799 388.7C184.294 397.45 152.907 389.85 122.784 380.05C119.868 379.021 116.897 378.169 113.887 377.5C119.983 364.361 124.863 350.64 128.46 336.525Z" fill="black"/>
<path d="M127.291 175.575C127.908 174.62 128.73 173.831 129.691 173.27C130.652 172.71 131.726 172.395 132.825 172.35C134.566 172.35 134.47 169.6 132.825 169.85C131.408 170.006 130.044 170.499 128.837 171.292C127.63 172.085 126.612 173.156 125.86 174.425C125.24 175.45 126.623 176.575 127.291 175.575ZM132.92 182.5C131.942 183.325 132.014 187.5 133.492 187.5C133.831 187.463 134.147 187.307 134.389 187.057C134.632 186.807 134.787 186.479 134.828 186.125C135.377 183.95 133.969 181.725 132.92 182.5ZM130.821 203.15C130.777 202.954 130.675 202.778 130.532 202.645C130.388 202.512 130.208 202.429 130.018 202.407C129.827 202.385 129.635 202.426 129.467 202.523C129.299 202.62 129.164 202.769 129.08 202.95C128.841 203.3 128.388 204.375 129.39 206.55C130.07 208.03 131.244 209.199 132.689 209.835C134.135 210.47 135.753 210.529 137.237 210C137.438 209.916 137.603 209.758 137.7 209.555C137.797 209.353 137.82 209.12 137.764 208.901C137.708 208.682 137.577 208.492 137.396 208.367C137.216 208.243 136.998 208.192 136.784 208.225C133.397 208.925 131.441 206.675 130.821 203.15Z" fill="black"/>
</svg>
