<svg width="67" height="50" viewBox="0 0 67 100" fill="none" xmlns="http://www.w3.org/2000/svg">
<path fill-rule="evenodd" clip-rule="evenodd" d="M54.7907 7.62289C47.033 1.23228 36.8203 -1.31071 26.7768 0.643944C13.2556 3.2749 2.39605 14.6841 0.368609 28.3895C-1.28512 39.5737 2.68977 50.743 11.0018 58.2691C14.747 61.6598 17.0065 66.5435 17.3653 72.0225C17.3722 72.1219 17.3916 72.2179 17.4133 72.3127V89.4933C17.4133 89.9478 17.5939 90.3837 17.9154 90.705C18.2369 91.0264 18.6729 91.2069 19.1276 91.2069H20.8362C21.5322 96.1867 25.1939 100 29.6043 100H37.3872C41.7975 100 45.4581 96.1867 46.1541 91.2069H47.8627C48.3173 91.2069 48.7534 91.0264 49.0749 90.705C49.3964 90.3837 49.577 89.9478 49.577 89.4933V72.0385L49.5781 72.0271C49.5781 66.9297 51.8936 62.0071 56.0993 58.1663C59.5285 55.031 62.2682 51.2174 64.1448 46.9676C66.0213 42.7177 66.9936 38.1243 67 33.4789C67.0069 28.5344 65.9152 23.6501 63.8038 19.1786C61.6924 14.7072 58.6139 10.7603 54.7907 7.62289ZM27.434 40.1449H24.7997C23.3471 40.1449 22.1653 38.9636 22.1653 37.5116C22.1653 36.0596 23.3471 34.8784 24.7997 34.8784C26.2522 34.8784 27.434 36.0596 27.434 37.5116V40.1449ZM39.5586 37.5116C39.5595 36.8133 39.8375 36.1439 40.3316 35.6502C40.8257 35.1566 41.4955 34.879 42.1941 34.8784C43.6466 34.8784 44.8284 36.0596 44.8284 37.5116C44.8284 38.9636 43.6466 40.1449 42.1941 40.1449H39.562L39.5586 37.5116ZM38.5266 73.6185H46.1495V87.7797H44.5804L44.5689 87.7786L44.5575 87.7797H22.4339L22.4225 87.7786L22.4111 87.7797H20.8431V73.6185H37.2615M30.8626 70.1912V43.5721H36.1392L36.178 70.1912H30.8626ZM37.3872 96.5728H29.6043C27.0465 96.5728 24.8991 94.2834 24.3048 91.2069H42.6855C42.0924 94.2834 39.9449 96.5728 37.3872 96.5728ZM53.7873 55.637C49.3621 59.6777 46.7427 64.7911 46.2524 70.1912H39.6055L39.5678 43.5721H42.1941C43.8015 43.5703 45.3426 42.9312 46.4792 41.795C47.6158 40.6588 48.2552 39.1184 48.257 37.5116C48.2552 35.9048 47.6158 34.3644 46.4792 33.2282C45.3426 32.0921 43.8015 31.453 42.1941 31.4512C40.5861 31.453 39.0446 32.0924 37.9077 33.229C36.7709 34.3656 36.1315 35.9066 36.13 37.5139L36.1335 40.1449H30.8626V37.5116C30.8607 35.9048 30.2214 34.3644 29.0848 33.2282C27.9481 32.0921 26.4071 31.453 24.7997 31.4512C23.1922 31.453 21.6512 32.0921 20.5145 33.2282C19.3779 34.3644 18.7386 35.9048 18.7368 37.5116C18.7386 39.1184 19.3779 40.6588 20.5145 41.795C21.6512 42.9312 23.1922 43.5703 24.7997 43.5721H27.434V70.1912H20.6088C19.8819 64.4735 17.3356 59.3784 13.3024 55.7284C5.84179 48.9722 2.27377 38.9396 3.75949 28.8899C5.57779 16.5976 15.3116 6.36625 27.4305 4.00718C36.4683 2.25016 45.6455 4.5304 52.6079 10.2676C56.0402 13.0842 58.8041 16.6276 60.6998 20.6418C62.5956 24.6561 63.576 29.041 63.5702 33.4801C63.5649 37.6494 62.6925 41.772 61.0084 45.5863C59.3243 49.4006 56.8652 52.8233 53.7873 55.637Z" fill="#6A6F4C"/>
</svg>
