<svg width="352" height="252" viewBox="0 0 352 252" fill="none" xmlns="http://www.w3.org/2000/svg">
<path d="M331.887 1H20.1128C9.55711 1 1 9.94594 1 20.9813V231.019C1 242.054 9.55711 251 20.1128 251H331.887C342.443 251 351 242.054 351 231.019V20.9813C351 9.94594 342.443 1 331.887 1Z" fill="#ABB08D" stroke="black" stroke-miterlimit="10"/>
<g style="mix-blend-mode:multiply">
<path d="M15.7051 50.2422V221.644H335.313" stroke="#030303" stroke-miterlimit="10"/>
</g>
<path d="M16.0664 66.7139H333.066" stroke="black" stroke-miterlimit="10"/>
<path d="M15.9844 81.6343H332.984" stroke="black" stroke-miterlimit="10"/>
<path d="M15.9043 96.5537H332.904" stroke="black" stroke-miterlimit="10"/>
<path d="M15.832 111.469H332.832" stroke="black" stroke-miterlimit="10"/>
<path d="M15.75 126.388H332.75" stroke="black" stroke-miterlimit="10"/>
<path d="M15.6777 141.308H332.677" stroke="black" stroke-miterlimit="10"/>
<path d="M15.5996 156.228H332.595" stroke="black" stroke-miterlimit="10"/>
<path d="M15.5215 171.148H332.521" stroke="black" stroke-miterlimit="10"/>
<path d="M15.4395 186.066H332.439" stroke="black" stroke-miterlimit="10"/>
<path d="M15.3672 200.987H332.363" stroke="black" stroke-miterlimit="10"/>
<g style="mix-blend-mode:multiply">
<path d="M35.3145 117.477L130.332 62.7354L204.366 76.8957L251.001 51.1895" stroke="#5E2611" stroke-width="5" stroke-miterlimit="10"/>
</g>
<path d="M15.7051 141.242C15.7051 141.242 49.8067 183.33 88.6353 141.723C122.763 105.152 174.305 99.0149 222.329 136.389C267.086 171.217 310.803 96.644 310.803 96.644" stroke="#F0CEC0" stroke-width="4" stroke-miterlimit="10"/>
</svg>
