<svg width="70" height="70" viewBox="0 0 100 100" fill="none" xmlns="http://www.w3.org/2000/svg">
<path fill-rule="evenodd" clip-rule="evenodd" d="M93.9977 45.3119C93.9977 41.6359 92.3387 38.1909 89.5117 35.8979C89.632 35.3371 89.6936 34.7654 89.6957 34.1919C89.6957 29.6129 86.3097 25.8099 81.9107 25.1549C82.0097 24.6421 82.0596 24.1211 82.0597 23.5989C82.0597 18.7239 78.2177 14.7409 73.4047 14.4879C73.3248 14.4733 73.2439 14.4652 73.1627 14.4639C73.1227 14.4639 73.0837 14.4689 73.0427 14.4699C73.0027 14.4689 72.9637 14.4639 72.9227 14.4639C72.4647 14.4639 72.0037 14.5049 71.5167 14.5899C71.1039 12.3894 69.9345 10.4026 68.211 8.97353C66.4876 7.54446 64.3186 6.76315 62.0797 6.7649C56.7687 6.7649 52.4477 11.0859 52.4477 16.3979V82.3159C52.4477 89.0389 57.9167 94.5069 64.6387 94.5069C69.0987 94.5069 73.1467 92.0939 75.2847 88.2609C75.7637 88.3649 76.2237 88.4289 76.6857 88.4589C79.5887 88.6439 82.4157 87.6929 84.6117 85.7659C85.6944 84.821 86.5789 83.6706 87.214 82.3815C87.8491 81.0924 88.2222 79.6902 88.3117 78.2559C88.3889 77.029 88.2526 75.7981 87.9087 74.6179C91.7047 71.9269 93.9357 67.6659 93.9357 62.9969C93.9357 59.6119 92.7167 56.3619 90.4907 53.7729C92.7307 51.5049 93.9977 48.4709 93.9977 45.3119ZM90.9377 62.9989C90.9377 66.4829 89.3557 69.6789 86.6427 71.8179C84.6347 68.6219 81.0727 66.5809 77.2157 66.5809C76.8179 66.5809 76.4363 66.7389 76.155 67.0202C75.8737 67.3015 75.7157 67.6831 75.7157 68.0809C75.7157 68.4787 75.8737 68.8603 76.155 69.1416C76.4363 69.4229 76.8179 69.5809 77.2157 69.5809C78.8564 69.5871 80.4571 70.0872 81.8095 71.0161C83.1619 71.9451 84.2031 73.2597 84.7977 74.7889C85.2077 75.8769 85.3897 76.9779 85.3187 78.0629C85.2539 79.1036 84.9832 80.1211 84.5223 81.0565C84.0614 81.9918 83.4195 82.8264 82.6337 83.5119C81.8519 84.2019 80.9409 84.73 79.9535 85.0654C78.9662 85.4008 77.9221 85.5369 76.8817 85.4659C76.2877 85.4269 75.6737 85.2989 74.9487 85.0639C74.5917 84.9474 74.204 84.9691 73.8622 85.1246C73.5204 85.2802 73.2494 85.5582 73.1027 85.9039C72.3991 87.5668 71.2207 88.9854 69.7151 89.9822C68.2095 90.9789 66.4434 91.5096 64.6377 91.5079C59.5697 91.5079 55.4467 87.3849 55.4467 82.3169V16.3989C55.4485 14.6405 56.1478 12.9546 57.3911 11.7111C58.6345 10.4676 60.3203 9.76801 62.0787 9.7659C65.4767 9.7659 68.2727 12.3279 68.6367 15.6739C65.8857 17.2499 64.0247 20.2089 64.0247 23.5999C64.0247 23.9977 64.1827 24.3793 64.464 24.6606C64.7453 24.9419 65.1269 25.0999 65.5247 25.0999C65.9225 25.0999 66.3041 24.9419 66.5854 24.6606C66.8667 24.3793 67.0247 23.9977 67.0247 23.5999C67.0247 20.2569 69.7137 17.5349 73.0407 17.4699C76.3677 17.5349 79.0567 20.2569 79.0567 23.5989C79.0567 24.2209 78.9397 24.8649 78.6977 25.5699C78.6285 25.7723 78.6033 25.987 78.6237 26.1999L78.6137 26.2349C78.5554 26.4643 78.5523 26.7043 78.6045 26.9352C78.6568 27.1661 78.7629 27.3813 78.9143 27.5633C79.0657 27.7453 79.258 27.8889 79.4755 27.9823C79.693 28.0757 79.9295 28.1164 80.1657 28.1009C80.2969 28.0904 80.4276 28.0751 80.5577 28.0549C82.1845 28.0567 83.7441 28.7038 84.8945 29.8541C86.0448 31.0045 86.6918 32.5641 86.6937 34.1909C86.6937 34.7629 86.5907 35.3499 86.3717 36.0399C86.2729 36.349 86.2771 36.6819 86.3837 36.9885C86.4902 37.295 86.6934 37.5587 86.9627 37.7399C88.1565 38.5439 89.1427 39.6194 89.8404 40.8783C90.5382 42.1371 90.9276 43.5434 90.9767 44.9819L90.9757 44.9939C90.9757 50.0239 86.8837 54.1169 81.8537 54.1169C76.8237 54.1169 72.7307 50.0239 72.7307 44.9939C72.7307 44.5961 72.5727 44.2145 72.2914 43.9332C72.01 43.6519 71.6285 43.4939 71.2307 43.4939C70.8329 43.4939 70.4513 43.6519 70.17 43.9332C69.8887 44.2145 69.7307 44.5961 69.7307 44.9939C69.7307 51.6789 75.1687 57.1169 81.8537 57.1169C84.0817 57.1169 86.1637 56.5019 87.9597 55.4489C89.8797 57.5389 90.9377 60.2119 90.9377 62.9989ZM38.1787 6.7659C35.94 6.76403 33.7712 7.54535 32.048 8.97447C30.3249 10.4036 29.1559 12.3905 28.7437 14.5909C28.2792 14.5081 27.8085 14.466 27.3367 14.4649C27.2967 14.4649 27.2577 14.4699 27.2167 14.4709C27.1767 14.4699 27.1377 14.4649 27.0967 14.4649C27.0137 14.4649 26.9337 14.4759 26.8547 14.4889C22.0417 14.7419 18.2007 18.7249 18.2007 23.5999C18.2007 24.1139 18.2497 24.6299 18.3497 25.1559C13.9507 25.8109 10.5647 29.6139 10.5647 34.1929C10.5647 34.7469 10.6257 35.3109 10.7487 35.8989C9.34684 37.0347 8.21652 38.4695 7.44037 40.0982C6.66422 41.727 6.26186 43.5086 6.2627 45.3129C6.2627 48.4719 7.5287 51.5059 9.7677 53.7759C7.5407 56.3649 6.3217 59.6149 6.3217 62.9999C6.3217 67.6689 8.5527 71.9289 12.3487 74.6209C12.0041 75.8013 11.8681 77.0327 11.9467 78.2599C12.0361 79.6939 12.409 81.096 13.044 82.3849C13.6789 83.6739 14.5632 84.8241 15.6457 85.7689C16.7237 86.7186 17.9791 87.4456 19.3395 87.9078C20.6998 88.37 22.1382 88.5583 23.5717 88.4619C24.0267 88.4319 24.4907 88.3659 24.9717 88.2629C26.0281 90.1587 27.5723 91.7376 29.4441 92.836C31.3159 93.9344 33.4474 94.5123 35.6177 94.5099C42.3397 94.5099 47.8087 89.0409 47.8087 82.3189V16.3989C47.8107 11.0869 43.4897 6.7659 38.1787 6.7659ZM44.8107 82.3169C44.8107 87.3849 40.6877 91.5079 35.6197 91.5079C33.8141 91.5097 32.0481 90.979 30.5426 89.9822C29.0372 88.9854 27.859 87.5668 27.1557 85.9039C27.009 85.5582 26.738 85.2802 26.3962 85.1246C26.0544 84.9691 25.6667 84.9474 25.3097 85.0639C24.5857 85.2989 23.9717 85.4269 23.3767 85.4659C22.3365 85.5372 21.2924 85.4012 20.3052 85.0657C19.318 84.7303 18.4072 84.2021 17.6257 83.5119C16.8399 82.8264 16.198 81.9918 15.7371 81.0565C15.2762 80.1211 15.0055 79.1036 14.9407 78.0629C14.8647 76.9029 15.0657 75.7269 15.5387 74.5679C15.5457 74.5509 15.5437 74.5319 15.5497 74.5149C16.8917 71.4589 19.7747 69.5619 23.1467 69.5619C23.5445 69.5619 23.9261 69.4039 24.2074 69.1226C24.4887 68.8413 24.6467 68.4597 24.6467 68.0619C24.6467 67.6641 24.4887 67.2825 24.2074 67.0012C23.9261 66.7199 23.5445 66.5619 23.1467 66.5619C21.2421 66.5567 19.3672 67.0345 17.6974 67.9507C16.0277 68.867 14.6175 70.1916 13.5987 71.8009C10.8977 69.6619 9.3217 66.4739 9.3217 62.9989C9.3217 60.2119 10.3817 57.5389 12.2997 55.4499C14.15 56.5409 16.2587 57.1169 18.4067 57.1179C25.0917 57.1179 30.5297 51.6799 30.5297 44.9949C30.5297 44.5971 30.3717 44.2155 30.0904 43.9342C29.8091 43.6529 29.4275 43.4949 29.0297 43.4949C28.6319 43.4949 28.2503 43.6529 27.969 43.9342C27.6877 44.2155 27.5297 44.5971 27.5297 44.9949C27.5297 50.0249 23.4377 54.1179 18.4067 54.1179C13.3757 54.1179 9.2837 50.0249 9.2837 44.9949L9.2827 44.9889C9.33093 43.5495 9.7198 42.1421 10.4174 40.8822C11.115 39.6223 12.1014 38.5457 13.2957 37.7409C13.5648 37.5598 13.7678 37.2962 13.8744 36.9899C13.9809 36.6836 13.9853 36.3509 13.8867 36.0419C13.6667 35.3509 13.5647 34.7639 13.5647 34.1919C13.5647 30.8159 16.3057 28.0669 19.7597 28.0669H19.7817C19.8847 28.0809 19.9877 28.0939 20.0927 28.1009C20.3325 28.1167 20.5725 28.0746 20.7926 27.9782C21.0128 27.8818 21.2065 27.7339 21.3574 27.5469C21.5084 27.36 21.6122 27.1395 21.6601 26.904C21.708 26.6685 21.6986 26.425 21.6327 26.1939C21.6357 26.1589 21.6387 26.1269 21.6397 26.0989C21.6449 25.9191 21.6175 25.7399 21.5587 25.5699C21.3167 24.8629 21.1997 24.2179 21.1997 23.5979C21.1997 20.2559 23.8877 17.5329 27.2157 17.4689C30.5437 17.5339 33.2317 20.2559 33.2317 23.5989C33.2317 23.9967 33.3897 24.3783 33.671 24.6596C33.9523 24.9409 34.3339 25.0989 34.7317 25.0989C35.1295 25.0989 35.5111 24.9409 35.7924 24.6596C36.0737 24.3783 36.2317 23.9967 36.2317 23.5989C36.2317 20.2079 34.3707 17.2489 31.6197 15.6729C31.9837 12.3269 34.7797 9.7649 38.1777 9.7649C39.9361 9.76701 41.6219 10.4666 42.8652 11.7101C44.1086 12.9536 44.8078 14.6395 44.8097 16.3979L44.8107 82.3169Z" fill="#6A6F4C"/>
</svg>
