<svg width="350" height="350" viewBox="0 0 492 492" fill="none" xmlns="http://www.w3.org/2000/svg">
<circle cx="246" cy="246" r="246" fill="#9AA2FD"/>
<circle cx="246" cy="246" r="246" fill="#83895E"/>
<circle cx="246" cy="246" r="211" fill="#9AA2FD"/>
<circle cx="246" cy="246" r="211" fill="#969D6B"/>
<circle cx="246" cy="246" r="177" fill="#8E936E"/>
<circle cx="246" cy="246" r="177" fill="#BEC593"/>
<circle cx="246" cy="246" r="142" fill="#CFD79B"/>
<path d="M105.584 253L30 286H460L386.498 253H105.584Z" fill="#6A6F4C"/>
<path d="M219.48 191.64L205.2 214.84L232.59 247.37H260.21L285.96 214.29L270.02 191.64H219.48Z" fill="#3F4553"/>
<path d="M205.2 214.84C205.2 214.84 143.77 219.59 128.36 235.68C112.95 251.77 120.2 269.24 135.21 269.24C162.84 269.24 221.3 270.93 248.96 269.24L250.61 231.57L205.2 214.84Z" fill="#3F4553"/>
<path d="M284.37 214.04C284.37 214.04 348.7 219.59 364.11 235.68C379.52 251.77 370.64 262.43 357.26 269.24C338.43 278.83 270.56 277.24 235.36 265.59L241.87 231.57L284.37 214.04Z" fill="#3F4553"/>
<path d="M287.2 245.64L282.85 234.4L288.27 231.99C288.27 231.99 287.52 225.34 294.15 224.06C300.78 222.78 308.68 227.06 316.38 223.61C323.48 220.43 332.17 217.5 340.28 221.9C341.48 222.55 342.04 223.98 341.63 225.28L341.6 225.38C341.19 226.69 339.91 227.5 338.54 227.36C335.68 227.07 330.58 227.13 325.54 230.18C316.85 235.46 287.2 245.64 287.2 245.64Z" fill="#FEBBA0"/>
<path d="M337.81 246.28C337.81 246.28 294.88 238.65 204.45 237.47L195.72 249.31C195.72 249.31 218.22 262.17 239.34 266.82C260.46 271.47 333.37 286.11 365.93 263.56L337.81 246.28Z" fill="#3F4553"/>
<path d="M239.34 266.83C217.69 261.83 195.04 249.01 195.04 249.01L196.39 246.72" stroke="#6E758F" stroke-width="1.5925" stroke-miterlimit="10" stroke-linecap="round"/>
<path d="M204.45 237.47C204.45 237.47 303.8 235.2 330.31 250.58" stroke="#6E758F" stroke-width="1.5925" stroke-miterlimit="10" stroke-linecap="round"/>
<path d="M155.68 243.91C155.68 243.91 173.82 235.41 186.22 240.98" stroke="#6E758F" stroke-width="1.5925" stroke-miterlimit="10" stroke-linecap="round"/>
<path d="M197.81 247.35L204.44 237.25L197.81 233.66C197.81 233.66 195.49 227.85 188.99 226.05C182.48 224.26 177.85 227.15 170.44 223.11C163.61 219.38 155.17 215.79 146.75 219.54C145.51 220.09 144.83 221.47 145.14 222.8L145.16 222.9C145.47 224.24 146.68 225.14 148.05 225.11C150.92 225.04 156.01 225.5 160.79 228.94C169.04 234.88 197.81 247.35 197.81 247.35Z" fill="#FEBBA0"/>
<path d="M254.89 237.83L282.05 235.16" stroke="#6E758F" stroke-width="1.5925" stroke-miterlimit="10" stroke-linecap="round"/>
<path d="M220.35 226.06L235.5 237.03" stroke="#6E758F" stroke-width="1.5925" stroke-miterlimit="10" stroke-linecap="round"/>
<path d="M216.441 76.7701C217.081 83.0301 222.531 87.5901 228.611 86.9701C234.691 86.3501 239.101 80.7701 238.461 74.5201C237.821 68.2601 232.371 63.7001 226.291 64.3201C220.221 64.9301 215.811 70.5101 216.441 76.7701Z" fill="#3F4553"/>
<path d="M239.15 81.3204C239.15 81.3204 219.83 78.4004 216.79 60.1704C214.11 44.0604 224.92 31.1504 236.77 28.9204C236.78 28.9204 265.25 72.8004 239.15 81.3204Z" fill="#3F4553"/>
<path d="M239.591 30.65C238.171 31.35 236.821 32.27 235.591 33.46C224.581 44.05 231.551 64.61 241.411 73.89C246.871 79.02 254.851 81.41 261.821 78.79C272.011 74.96 275.201 63.42 273.131 53.14C271.591 45.48 267.341 38.25 261.071 33.75C254.801 29.26 246.331 27.36 239.591 30.65Z" fill="#FDBCA0"/>
<path d="M237.76 67.6902C235.83 69.6002 232.47 70.3802 229.89 69.4702C227.31 68.5602 225.19 66.1302 224.52 63.3102C223.92 60.7802 224.57 57.9002 226.43 56.3502C228.29 54.8002 231.64 54.9002 233.23 56.9102L237.76 67.6902Z" fill="#FDBCA0"/>
<path d="M234.94 60.9697L236.97 97.3097C237.24 104.03 242.69 109.37 249.41 109.5C257.17 109.66 263.26 102.88 262.27 95.1797L258.17 61.4397L234.94 60.9697Z" fill="#FDBCA0"/>
<path d="M260.93 84.2199L260.42 79.2399C260.42 79.2399 250.42 82.3099 241.41 73.8799C241.41 73.8899 246.6 83.3599 260.93 84.2199Z" fill="#DF8370"/>
<path d="M230.97 55.4802C243.99 54.8102 255.87 46.0702 262.43 34.8102C262.43 34.8102 250.45 23.4402 232.94 30.0902C218.43 35.5902 230.97 55.4802 230.97 55.4802Z" fill="#3F4553"/>
<path d="M232.401 63.8402C230.901 63.9902 229.591 63.1802 229.471 62.0302C229.381 61.1602 229.991 60.3502 230.931 59.9302" stroke="#444359" stroke-width="1.1144" stroke-miterlimit="10" stroke-linecap="round"/>
<path d="M263.68 61C263.98 60.09 264.5 59.37 265.08 58.69L265.36 59.57C264.7 59.32 264.34 58.94 263.97 58.57C263.62 58.18 263.31 57.79 263.03 57.37C262.47 56.54 262 55.66 261.66 54.73C262.36 55.44 263 56.17 263.67 56.87C264.01 57.21 264.33 57.56 264.68 57.86C265.01 58.15 265.4 58.45 265.67 58.52L266.48 58.71L265.95 59.4C265.41 60.11 264.81 60.77 263.98 61.25C263.88 61.31 263.76 61.27 263.7 61.18C263.67 61.11 263.67 61.05 263.68 61Z" fill="#444359"/>
<path d="M266.61 64.1802C266.21 65.0002 265.53 65.7102 264.65 66.1402C263.78 66.5902 262.7 66.6802 261.74 66.4002C260.76 66.1302 260 65.4902 259.35 64.8302C259.06 64.4702 258.77 64.1002 258.53 63.7202C258.32 63.3102 258.1 62.9102 257.94 62.4902C258.31 62.7702 258.63 63.0702 258.95 63.3702L259.94 64.1902C260.64 64.6502 261.3 65.1502 262.06 65.3302C262.79 65.5602 263.57 65.5502 264.34 65.3402C265.1 65.1202 265.86 64.6902 266.61 64.1802Z" fill="#444359"/>
<path d="M256.14 51.11C256.53 52.27 256.75 53.47 256.67 54.76C256.62 55.39 256.47 56.08 256 56.69C255.52 57.31 254.71 57.58 254 57.56C253.27 57.55 252.55 57.23 252.06 56.78C251.55 56.33 251.15 55.81 250.85 55.26C250.25 54.15 249.87 52.99 249.68 51.77C249.65 51.58 249.78 51.4 249.97 51.36C250.15 51.33 250.31 51.44 250.36 51.6L250.37 51.62C250.71 52.7 251.16 53.79 251.74 54.73C252.32 55.64 253.11 56.48 254.04 56.45C254.5 56.47 254.93 56.35 255.19 56.02C255.48 55.7 255.62 55.18 255.7 54.65C255.85 53.58 255.75 52.4 255.57 51.27V51.25C255.54 51.09 255.66 50.93 255.82 50.91C255.95 50.89 256.09 50.98 256.14 51.11Z" fill="#444359"/>
<path d="M270.66 48.8401C270.99 49.8201 271.17 50.8201 271.15 51.8901C271.14 52.4201 271.04 53.0001 270.7 53.5501C270.37 54.1301 269.63 54.4901 268.99 54.4601C268.32 54.4501 267.71 54.1001 267.32 53.6901C266.92 53.2701 266.61 52.8201 266.38 52.3401C265.93 51.3801 265.65 50.4001 265.51 49.3701C265.48 49.1801 265.62 49.0001 265.82 48.9701C265.99 48.9501 266.15 49.0501 266.2 49.2101L266.21 49.2301C266.5 50.1301 266.85 51.0501 267.3 51.8501C267.75 52.6301 268.36 53.3801 269.03 53.3401C269.37 53.3501 269.64 53.2501 269.82 52.9701C270.02 52.6901 270.12 52.2601 270.18 51.8101C270.28 50.9101 270.2 49.9201 270.09 48.9801V48.9601C270.07 48.8001 270.19 48.6501 270.35 48.6201C270.48 48.6201 270.62 48.7101 270.66 48.8401Z" fill="#444359"/>
<path d="M281.461 100.61C281.371 94.5104 261.591 89.6304 261.591 89.6304C260.351 91.0004 258.221 93.3104 249.251 93.3104C240.671 93.3104 237.241 91.0904 235.901 89.6304H227.411C225.521 89.6304 223.791 90.7104 223.001 92.4304C205.991 129.64 215.551 171.2 219.471 191.63C219.831 193.51 255.331 192.24 271.341 193.51C274.801 193.8 281.801 122.78 281.461 100.61Z" fill="#FEE6C6"/>
<path d="M240.15 153.23C241.91 139.01 244.06 130.48 245.71 133.28C247.17 135.76 246.36 148.2 244.17 160.2C244.18 160.2 239.4 159.32 240.15 153.23Z" fill="#FEBBA0"/>
<path d="M251.771 153.23C250.011 139.01 247.861 130.48 246.211 133.28C244.751 135.76 245.561 148.2 247.751 160.2C247.741 160.2 252.521 159.32 251.771 153.23Z" fill="#FEBBA0"/>
<path d="M310.391 149.7H288.041L291.591 172.4L251.031 152.61C250.891 151.09 250.701 149.21 250.471 147.22C248.941 147.22 247.401 147.22 245.871 147.2C245.881 148.93 245.911 150.1 245.911 150.1C245.911 150.1 245.121 160.54 246.931 164.02C250.371 170.64 285.561 191.96 295.331 194.49C295.941 194.65 296.551 194.77 297.161 194.85C306.591 196.18 312.841 190.89 312.771 181.37L310.391 149.7Z" fill="#FEBBA0"/>
<path d="M241.051 147.12C240.701 149.36 240.391 151.52 240.151 153.23L200.761 171.47L202.421 149.71H180.071L177.701 181.4C177.641 190.92 183.891 196.2 193.311 194.88C193.921 194.79 194.531 194.67 195.141 194.52C204.911 191.99 237.641 174.3 244.631 163.98C246.701 160.93 245.721 150.66 245.721 150.66C245.721 150.66 245.721 149.24 245.681 147.22C244.141 147.19 242.601 147.16 241.051 147.12Z" fill="#FEBBA0"/>
<path d="M208.14 162.12C216.88 136.27 216.81 136.25 227.54 89.6401C220.36 90.1301 219.62 88.9601 213.96 91.9001C196.98 100.72 180.99 129.69 176.28 162.12H208.14Z" fill="#FEE6C6"/>
<path d="M285.96 159.57C280.82 141.26 261.59 89.6403 261.59 89.6403C280.82 88.9903 307.06 114.06 313.34 156.22L285.96 159.57Z" fill="#FEE6C6"/>
<path d="M281.47 119.14L277.42 152.42" stroke="#EED2AD" stroke-width="1.5925" stroke-miterlimit="10" stroke-linecap="round"/>
<path d="M211.82 124.6L215.04 160.2" stroke="#EED2AD" stroke-width="1.5925" stroke-miterlimit="10" stroke-linecap="round"/>
</svg>
