<svg width="150" height="350" viewBox="0 0 227 375" fill="none" xmlns="http://www.w3.org/2000/svg">
<path d="M9 285.5L114.5 221L220.5 288.5V348L214 358.5L200.5 368H40.5L24 362.5L9 348V285.5Z" fill="white"/>
<path d="M8 279.5L11 163.607L26.1449 172.991L202.331 174.034L220 161V283L113.986 211.573L8 279.5Z" fill="#DF4040" stroke="black"/>
<path d="M190.96 71C206.23 71 218.65 83.42 218.65 98.69V338.62C218.65 353.89 206.23 366.31 190.96 366.31H40.69C25.42 366.31 8.5 353.89 8.5 338.62L13 98.69C13 83.42 25.42 71 40.69 71H190.96ZM190.96 63H40.69C20.98 63 5 78.98 5 98.69L0.5 338.62C0.5 358.33 20.98 374.31 40.69 374.31H190.96C210.67 374.31 226.65 358.33 226.65 338.62V98.69C226.65 78.98 210.67 63 190.96 63Z" fill="black"/>
<path d="M192.82 28.5049C205.97 28.5049 216.67 39.2049 216.67 52.3549V106.965C216.67 120.115 205.97 130.815 192.82 130.815H34.85C21.7 130.815 11 120.115 11 106.965V52.3549C11 39.2049 21.7 28.5049 34.85 28.5049H192.82ZM192.82 20.5049H34.85C17.26 20.5049 3 34.7649 3 52.3549V106.965C3 124.555 17.26 138.815 34.85 138.815H192.81C210.4 138.815 224.66 124.555 224.66 106.965V52.3549C224.66 34.7649 210.4 20.5049 192.82 20.5049Z" fill="black"/>
<path d="M192.82 64.6143C205.97 64.6143 216.67 75.3142 216.67 88.4642V143.074C216.67 156.224 205.97 166.924 192.82 166.924H34.85C21.7 166.924 11 156.224 11 143.074V88.4642C11 75.3142 21.7 64.6143 34.85 64.6143H192.82ZM192.82 56.6143H34.85C17.26 56.6143 3 70.8742 3 88.4642V143.074C3 160.664 17.26 174.924 34.85 174.924H192.81C210.4 174.924 224.66 160.664 224.66 143.074V88.4642C224.66 70.8742 210.4 56.6143 192.82 56.6143Z" fill="black"/>
<path d="M64.7407 140.825C49.3907 140.825 36.8906 128.335 36.8906 112.975V90.265C36.8906 74.915 49.3807 62.415 64.7407 62.415H162.931C178.281 62.415 190.781 74.905 190.781 90.265V112.975C190.781 128.325 178.291 140.825 162.931 140.825H64.7407Z" fill="white"/>
<path d="M162.931 66.4346C176.081 66.4346 186.781 77.1346 186.781 90.2846V112.995C186.781 126.145 176.081 136.845 162.931 136.845H64.7407C51.5907 136.845 40.8906 126.145 40.8906 112.995V90.2846C40.8906 77.1346 51.5907 66.4346 64.7407 66.4346H162.931ZM162.931 58.4346H64.7407C47.1507 58.4346 32.8906 72.6946 32.8906 90.2846V112.995C32.8906 130.585 47.1507 144.845 64.7407 144.845H162.931C180.521 144.845 194.781 130.585 194.781 112.995V90.2846C194.781 72.6846 180.521 58.4346 162.931 58.4346Z" fill="black"/>
<path d="M171.119 58.4844V140.044" stroke="black" stroke-width="8" stroke-miterlimit="10"/>
<path d="M146.211 57.8643V138.804" stroke="black" stroke-width="8" stroke-miterlimit="10"/>
<path d="M104.499 57.8643L103.869 139.424" stroke="black" stroke-width="8" stroke-miterlimit="10"/>
<path d="M120.69 4.80469H97.6504V139.295H120.69V4.80469Z" fill="white" stroke="black" stroke-width="8" stroke-miterlimit="10" stroke-linecap="round" stroke-linejoin="round"/>
<path d="M93 39H70V139H93V39Z" fill="white" stroke="black" stroke-width="8" stroke-miterlimit="10" stroke-linecap="round" stroke-linejoin="round"/>
<path d="M52.2003 62.2246L51.5703 140.045" stroke="black" stroke-width="8" stroke-miterlimit="10"/>
<path d="M6.11914 283.255L113.829 215.385" stroke="black" stroke-width="8" stroke-miterlimit="10" stroke-linecap="round" stroke-linejoin="round"/>
<path d="M220.93 285.115L113.83 215.385" stroke="black" stroke-width="8" stroke-miterlimit="10" stroke-linecap="round" stroke-linejoin="round"/>
<path d="M74 80V43H89V80H74Z" fill="#FFCF9D"/>
<path d="M101.5 45.9992V8.69434L117 8.69511L116.688 45.9992H101.5Z" fill="#FFCF9D"/>
</svg>
