<svg width="300" height="400" viewBox="0 0 428 378" fill="none" xmlns="http://www.w3.org/2000/svg">
<path d="M200.989 51.0789C200.133 53.2785 197.565 57.2703 195.169 60.1216C192.857 62.8914 190.889 65.4169 190.889 65.6613C190.889 65.9871 192.429 67.8608 194.398 69.816C196.281 71.7712 199.021 75.763 200.476 78.6958C203.9 85.6203 205.441 85.6203 208.693 78.7772C210.063 76.0074 212.717 71.9341 214.685 69.816C216.654 67.6164 218.281 65.7427 218.281 65.5798C218.281 65.4169 216.654 63.5432 214.685 61.3436C212.717 59.2255 210.063 55.1522 208.693 52.3009C206.81 48.3091 205.869 47.2501 204.328 47.2501C202.787 47.2501 202.102 48.0647 200.989 51.0789ZM209.721 64.032C210.577 65.4983 210.32 66.3945 207.581 69.9789L204.413 74.1337L202.017 70.5492C200.733 68.594 199.192 66.7203 198.764 66.4759C198.165 66.1501 199.106 64.1949 200.989 61.5065L204.157 57.1074L206.468 59.7143C207.752 61.1807 209.207 63.1358 209.721 64.032Z" fill="black"/>
<path d="M316.72 48.3903C285.99 53.767 263.734 79.4286 263.648 109.245C263.648 125.864 270.668 141.994 283.08 153.399C295.149 164.642 308.075 170.018 324.51 170.833C345.311 171.892 360.633 166.189 375.442 152.014C381.006 146.638 383.06 143.949 386.228 137.676C391.706 127.004 393.332 120.65 393.332 109.164C393.247 91.6485 386.998 77.2291 374.072 65.0907C359.178 51.1601 337.35 44.8058 316.72 48.3903ZM340.517 53.767C350.104 55.3963 361.404 60.936 369.193 67.942C402.748 98.1657 389.823 150.548 345.396 163.745C331.358 167.9 316.806 166.597 302.168 159.917C295.406 156.821 292.924 155.11 286.76 149.163C274.691 137.758 269.298 125.375 269.298 109.164C269.298 95.3959 273.664 83.7463 282.737 73.2372C296.861 57.0256 317.833 49.9381 340.517 53.767Z" fill="black"/>
<path d="M326.736 56.6998C326.394 57.0256 326.137 60.5286 326.137 64.5205C326.137 70.223 326.394 71.8523 327.421 72.1782C330.331 73.3187 331.358 70.9562 331.102 63.6243C330.845 57.27 330.674 56.6183 329.133 56.3739C328.106 56.211 327.078 56.3739 326.736 56.6998Z" fill="black"/>
<path d="M357.379 89.7748C354.555 91.0783 350.189 93.2779 347.707 94.5813C342.228 97.4326 341.543 97.4326 337.777 94.9886C330.159 90.1007 319.544 92.6261 315.435 100.284C313.723 103.298 313.809 110.304 315.521 113.644C318.774 120.243 328.875 123.339 335.808 119.917L338.975 118.288L345.652 125.375C349.247 129.204 353.185 133.522 354.383 134.825C358.064 138.899 359.348 139.632 360.803 138.491C361.488 137.921 362.087 137.025 362.087 136.373C362.087 135.803 359.091 132.055 355.496 128.064C341.458 112.911 342.314 114.052 343.427 112.096C343.94 111.2 344.368 108.512 344.283 106.312L344.197 102.158L354.212 97.2697C364.313 92.2188 366.282 90.2636 363.628 88.1455C362.772 87.4938 361.231 87.9011 357.379 89.7748ZM335.551 99.958C342.742 106.149 337.007 117.718 327.591 116.088C324.167 115.436 320.4 112.341 319.63 109.571C317.319 100.61 328.447 93.9296 335.551 99.958Z" fill="black"/>
<path d="M275.117 106.313C273.919 109.327 275.289 109.979 282.736 109.979C288.129 109.979 290.269 109.653 291.039 108.757C291.895 107.779 291.895 107.29 291.039 106.313C290.269 105.416 288.129 105.091 282.736 105.091C277.172 105.091 275.46 105.335 275.117 106.313Z" fill="black"/>
<path d="M366.025 106.313C364.827 109.327 366.282 109.979 374.072 109.979C381.947 109.979 383.145 109.49 382.204 106.72C381.69 105.254 380.92 105.091 374.072 105.091C368.165 105.091 366.453 105.335 366.025 106.313Z" fill="black"/>
<path d="M326.479 143.623C326.222 144.275 326.137 147.86 326.308 151.607C326.565 158.287 326.65 158.45 328.705 158.45C330.759 158.45 330.845 158.287 331.101 151.526C331.273 145.742 331.101 144.438 329.903 143.623C327.934 142.239 327.078 142.32 326.479 143.623Z" fill="black"/>
<path d="M64.3715 55.6407C63.8579 56.1295 63.2587 57.5959 62.9163 58.7364C62.6595 59.8769 60.2627 63.4614 57.6947 66.72L53.0723 72.5855L56.7531 76.8217C58.7219 79.1842 61.2899 83.0131 62.3171 85.2941C65.3131 91.8928 66.9395 91.8928 70.1067 85.2941C71.2195 83.0131 73.6163 79.3472 75.4139 77.229C77.2971 75.1109 78.7523 72.9928 78.7523 72.504C78.7523 72.0153 77.2115 69.8972 75.4139 67.779C73.5307 65.6609 71.1339 62.0765 70.1067 59.8769C67.7099 54.6631 66.1691 53.5226 64.3715 55.6407ZM69.5931 69.4084C71.9899 72.504 72.5035 74.1334 71.1339 74.1334C70.7059 74.1334 69.5075 75.4368 68.4803 76.9847L66.5971 79.9174L63.6867 76.8217C62.1459 75.1109 60.8619 73.3187 60.7763 72.8299C60.7763 71.445 66.0835 65.0092 66.6827 65.7424C67.0251 66.0683 68.3091 67.779 69.5931 69.4084Z" fill="black"/>
<path d="M142.353 90.7524C137.56 92.2187 131.824 95.4774 129.513 98.0843C128.4 99.2248 126.346 102.32 124.805 104.846C122.152 109.245 121.98 110.06 121.98 117.31C121.98 124.072 122.237 125.62 124.292 129.53C128.4 137.514 134.906 142.483 143.98 144.683C157.59 148.023 171.2 141.668 177.364 129.041C179.675 124.235 179.932 123.257 179.589 116.658C179.161 105.335 174.025 97.514 163.839 92.789C157.333 89.6933 148.345 88.8787 142.353 90.7524ZM161.613 97.514C166.664 99.795 171.971 105.661 173.768 111.037C175.138 115.111 174.539 123.42 172.656 127.167C167.862 136.536 156.22 141.913 145.435 139.713C134.992 137.595 126.688 127.656 126.688 117.31C126.688 112.504 129.171 107.045 133.194 102.728C140.898 94.5812 150.999 92.7075 161.613 97.514Z" fill="black"/>
<path d="M79.864 118.125C72.588 122.361 71.6464 131.567 77.9808 137.351C80.292 139.469 81.148 139.713 86.1984 139.713C91.7624 139.713 91.7624 139.713 95.1864 136.047C98.4392 132.544 98.6104 132.219 98.268 127.819C97.9256 122.85 95.5288 119.266 91.6768 117.473C88.424 116.007 82.9456 116.333 79.864 118.125ZM90.6496 123.502C94.1592 126.272 94.2448 129.612 90.8208 132.87C87.7392 135.722 84.9144 135.884 81.9184 133.278C78.8368 130.589 78.2376 127.738 80.1208 125.05C82.86 120.976 86.8832 120.406 90.6496 123.502Z" fill="black"/>
<path d="M241.648 138.654C241.22 139.225 239.765 141.832 238.481 144.357C237.112 146.882 234.715 150.141 233.174 151.607C231.548 153.074 230.264 154.703 230.264 155.273C230.264 155.762 231.804 157.88 233.688 159.917C235.571 161.954 238.139 165.701 239.252 168.145C242.076 174.255 244.045 174.336 246.956 168.308C248.154 165.864 250.636 162.117 252.52 160.08C254.403 158.043 255.944 155.925 255.944 155.436C255.944 154.948 254.574 153.074 252.862 151.2C248.753 146.638 248.839 146.801 246.784 142.157C244.901 138.003 243.189 136.781 241.648 138.654ZM245.928 151.607C247.212 153.4 248.24 155.273 248.24 155.681C248.24 156.088 247.127 157.88 245.757 159.673L243.36 162.85L240.621 159.673C239.166 157.962 237.968 156.17 237.968 155.681C237.968 154.703 242.419 148.267 243.104 148.267C243.446 148.267 244.644 149.734 245.928 151.607Z" fill="black"/>
<path d="M57.3518 148.023C54.7838 148.919 52.2158 151.852 51.7878 154.296C51.6166 155.681 51.1886 203.256 50.9318 259.956C50.5038 354.538 50.5038 363.173 51.7878 364.151C52.815 364.965 53.5854 365.047 54.6126 364.395C55.8966 363.662 56.0678 361.055 56.3246 341.422L56.4958 319.345H215.284H374.072L374.243 341.422C374.5 361.788 374.585 363.662 376.041 364.477C377.325 365.21 377.838 365.047 378.865 363.825C380.663 361.381 380.663 218.653 378.865 216.209C377.838 214.987 377.325 214.825 376.041 215.558C374.585 216.372 374.5 218.328 374.243 239.916L374.072 263.378L370.99 257.838C358.493 234.458 330.587 219.142 286.332 211.403C282.137 210.67 276.916 209.774 274.776 209.366C259.881 206.515 228.809 204.234 217.253 205.13C210.405 205.7 209.72 205.619 207.665 203.908C203.214 200.324 199.619 199.916 189.604 202.034C181.814 203.664 180.359 203.745 179.417 202.768C176.764 200.079 172.997 188.185 170.429 174.173C169.231 167.737 167.348 164.234 162.297 159.265C156.562 153.725 150.57 151.526 141.411 151.526C133.108 151.526 126.345 154.296 120.867 159.998C114.447 166.597 113.42 169.856 113.505 182.075C113.591 189.896 114.105 194.54 115.474 199.916C116.501 203.908 117.186 207.248 117.015 207.411C116.844 207.574 114.875 205.13 112.564 201.953C104.004 190.059 90.5646 178.165 77.639 170.996L71.0478 167.412V161.465C71.0478 154.296 69.507 150.467 65.9974 148.756C63.4294 147.453 59.8342 147.208 57.3518 148.023ZM62.9158 153.318C64.799 154.133 65.0558 154.703 65.1414 158.776C65.3982 176.862 64.9702 265.089 64.6278 265.578C64.371 265.985 62.5734 266.148 60.519 266.066L56.9238 265.903L56.667 210.751C56.4958 156.495 56.4958 155.599 58.2078 153.97C60.2622 152.015 60.091 152.096 62.9158 153.318ZM152.625 158.858C161.099 162.931 164.523 168.634 166.492 182.483C167.262 187.289 170.087 196.658 172.227 201.138C174.11 205.049 173.682 205.863 169.916 206.271C167.433 206.515 167.091 206.026 159.216 193.643C152.796 183.46 150.741 180.853 149.286 180.853C145.434 180.853 146.29 183.379 154.936 197.146C159.729 204.723 164.095 211.24 164.78 211.81C165.636 212.543 167.262 212.462 171.371 211.484C190.545 207.004 198.934 205.456 200.732 206.108C203.385 207.085 206.296 210.833 206.296 213.358C206.296 214.499 205.44 216.454 204.327 217.757C202.358 220.038 203.043 219.875 175.48 226.963C166.577 229.244 161.784 229.733 159.045 228.755C157.504 228.185 154.08 223.297 144.236 208.144C133.365 191.281 132.937 190.792 130.369 193.236C129.341 194.295 129.256 194.865 130.197 196.413C133.365 202.116 151.169 228.837 153.053 230.792C155.706 233.399 160.928 234.946 165.379 234.376C167.177 234.132 168.632 234.05 168.632 234.213C168.632 234.539 158.36 253.684 158.017 254.009C157.333 254.661 142.524 240.405 138.244 234.946C132.509 227.778 126.003 216.046 123.349 208.226C121.038 201.301 118.128 185.497 118.128 179.713C118.128 169.448 123.949 161.709 134.82 157.473C138.843 155.843 147.831 156.577 152.625 158.858ZM76.0982 176.128C100.494 190.222 119.241 215.476 128.657 246.84C131.824 257.187 132.166 259.06 130.882 259.06C128.657 259.06 113.933 251.403 108.113 247.166C87.483 232.177 74.643 208.47 71.4758 179.387C70.791 173.603 71.219 173.359 76.0982 176.128ZM73.7014 210.833C75.6702 216.698 82.0902 227.778 87.1406 234.213C97.8406 247.818 111.708 257.757 127.801 263.541C130.026 264.356 131.824 265.252 131.824 265.578C131.824 266.229 72.2462 266.229 71.5614 265.496C71.219 265.17 70.791 215.721 71.0478 207.493C71.0478 205.945 72.6742 207.981 73.7014 210.833ZM258.084 212.136C263.305 212.788 270.753 213.928 274.776 214.662C278.799 215.313 284.021 216.291 286.332 216.617C292.324 217.676 306.876 221.26 315.265 223.704C337.521 230.466 356.866 243.908 365.255 258.49C367.909 263.215 368.508 264.926 367.737 265.496C366.625 266.392 161.527 266.392 160.585 265.496C159.216 264.193 171.799 238.694 176.25 233.969C178.048 231.932 180.359 231.036 188.748 228.918C202.701 225.415 204.669 224.763 207.066 222.808C209.549 220.853 211.432 216.78 211.432 213.603C211.432 212.299 211.689 210.996 212.117 210.588C213.058 209.611 247.384 210.751 258.084 212.136ZM142.866 247.9C146.889 251.81 151.426 255.802 153.053 256.861C155.535 258.409 155.877 258.979 155.449 261.423C155.193 262.971 154.593 264.6 154.165 265.007C153.652 265.496 149.8 265.903 145.52 265.985L137.816 266.148V263.296C137.816 260.201 134.135 244.804 132.166 240.079C130.197 235.109 130.711 233.887 133.279 237.472C134.477 239.264 138.843 243.908 142.866 247.9ZM373.901 292.624L373.644 314.05H215.284H56.9238L56.667 292.624L56.4958 271.28H215.284H374.072L373.901 292.624Z" fill="black"/>
<path d="M363.287 176.536C359.777 178.165 357.809 181.505 357.809 185.741C357.809 189.977 359.949 193.48 363.458 195.11C368.765 197.472 374.244 196.169 377.411 191.851C383.917 182.727 373.645 171.566 363.287 176.536ZM372.703 182.646C374.501 185.089 374.415 186.719 372.275 189.326C370.135 191.851 368.252 192.014 365.17 189.733C360.89 186.556 363.116 180.853 368.594 180.853C370.563 180.853 371.847 181.424 372.703 182.646Z" fill="black"/>
<path d="M371.5 266.5H160C162.833 257 170.1 236 178.5 232C186.9 228 197.167 225.667 204.5 224.5C208.5 222.213 211.5 219.5 212 209C321 209 361.5 243.5 371.5 266.5Z" fill="#959B72"/>
<path d="M56.5 315.5V271H377V315.5H56.5Z" fill="#5E2611" stroke="black"/>
<path d="M66 153.678L65.7086 153.218C63.4112 149.593 58.0408 149.85 56.1 153.678L55 267H66V153.678Z" fill="#5E2611"/>
<path d="M133.335 263.136C109.444 255.639 70.4535 224.177 70.6317 175.365C70.6366 174.014 71.974 173.083 73.2162 173.614C104.7 187.082 135.93 244.013 133.335 263.136Z" fill="#959B72"/>
</svg>
