<svg width="150" height="350" viewBox="0 0 253 400" fill="none" xmlns="http://www.w3.org/2000/svg">
<path d="M46.504 63.2594C51.2486 58.3103 58.0826 55.9431 64.8719 56.897L88.9284 60.2768H161.369L185.479 56.8894C192.256 55.9372 199.089 58.211 203.944 63.0344C230.614 89.5292 229.628 132.967 201.783 158.224L194.851 164.511C192.914 166.268 193.342 169.422 195.678 170.599L200.521 173.039C217.704 181.695 228.341 199.498 227.821 218.732L223.409 381.957C223.317 385.364 222.068 388.638 219.866 391.24L213.354 398.938C212.784 399.611 211.946 400 211.064 400H44.6394C43.7569 400 42.9191 399.611 42.3491 398.938L35.9845 391.415C33.6932 388.706 32.4359 385.274 32.4359 381.726V214.792C32.4359 197.71 41.4797 181.905 56.2066 173.25L60.2694 170.862C62.5315 169.533 62.823 166.377 60.8428 164.655L50.7165 155.853C23.1154 131.861 21.1955 89.6587 46.504 63.2594Z" fill="#91B0FF"/>
<path d="M93.175 29.6032L93.4376 29.0095L93.6211 28.3867L97.9842 13.5862L88.3923 10.7586L97.9842 13.5862C98.6111 11.4598 100.563 10 102.78 10H126.416H148.973C151.356 10 153.408 11.6816 153.876 14.0181L156.581 27.5228L156.673 27.9849L156.809 28.4362L157.543 30.8803C146.183 41.8959 152.897 61.4375 168.906 62.9087L187.181 64.588C190.129 64.8589 192.889 66.1481 194.989 68.2339C218.633 91.7228 217.759 130.232 193.073 152.624L188.133 157.104L194.851 164.511L188.133 157.104C180.997 163.577 182.575 175.196 191.179 179.53L196.022 181.97C209.745 188.883 218.24 203.101 217.825 218.461L213.413 381.687C213.382 382.823 212.966 383.914 212.232 384.781L207.817 390H47.8863L43.6187 384.956L35.9844 391.415L43.6187 384.956C42.855 384.053 42.4359 382.909 42.4359 381.726V214.792C42.4359 201.256 49.6029 188.73 61.2735 181.872L65.3362 179.484C73.4906 174.691 74.5417 163.313 67.4033 157.108L60.8428 164.655L67.4032 157.108L59.3084 150.072C34.9144 128.867 33.2175 91.5688 55.5854 68.2369C57.6031 66.1322 60.3085 64.8205 63.2106 64.5399L80.4919 62.8691C95.9511 61.3744 102.701 42.7918 92.2384 31.7214L93.175 29.6032ZM91.8367 32.6298L91.8376 32.6278L91.8367 32.6298Z" stroke="#424242" stroke-width="20"/>
<line x1="40" y1="215.382" x2="220.56" y2="215.382" stroke="#424242" stroke-width="8"/>
<line x1="40" y1="313.359" x2="220.56" y2="313.359" stroke="#424242" stroke-width="8"/>
<line x1="84.332" y1="59.416" x2="166.503" y2="59.416" stroke="#424242" stroke-width="3"/>
<path d="M52 317H205.5L203.5 379.5L52 380.5V317Z" fill="#91B0FF"/>
<path d="M52.5 309.5V219H208L205.5 309.5H52.5Z" fill="#FFFDFD" stroke="white" stroke-width="4"/>
</svg>
