<svg width="70" height="70" viewBox="0 0 100 100" fill="none" xmlns="http://www.w3.org/2000/svg">
<path fill-rule="evenodd" clip-rule="evenodd" d="M88.5004 15.3C88.2004 15 87.8004 14.8 87.4004 14.8H72.2004V7.80005C72.2004 7.00005 71.5004 6.30005 70.7004 6.30005H28.0004C27.2004 6.30005 26.5004 7.00005 26.5004 7.80005V14.8H10.9004C10.5004 14.8 10.1004 15 9.80039 15.3C9.50039 15.6 9.40039 16 9.40039 16.4C9.40039 16.7 9.70039 23.1 12.0004 30.5C15.2004 40.4 20.6004 47.4 27.8004 50.6C30.2004 58.6 35.7004 64.9001 42.6004 67.4001V67.7C42.6004 76 36.3004 82.6 28.2004 82.6C27.4004 82.6 26.7004 83.3 26.7004 84.1V92.6C26.7004 93.4 27.4004 94.1 28.2004 94.1H70.7004C71.5004 94.1 72.2004 93.4 72.2004 92.6V84.1C72.2004 83.3 71.5004 82.6 70.7004 82.6C62.5004 82.6 55.8004 75.9 55.8004 67.7V67.5C63.0004 65 68.6004 58.6001 71.0004 50.4001C77.9004 47.1001 83.2004 40.2 86.3004 30.5C88.7004 23.1 88.9004 16.6 88.9004 16.4C89.0004 16 88.8004 15.6 88.5004 15.3ZM12.5004 17.8H26.5004V41.8C26.5004 43.5 26.6004 45.1001 26.9004 46.7001C15.5004 39.9001 13.0004 23 12.5004 17.8ZM69.2004 85.5V91H29.7004V85.5C38.5004 84.8 45.3004 77.5 45.5004 68.2C46.7004 68.4 48.0004 68.6 49.3004 68.6C50.5004 68.6 51.7004 68.5001 52.8004 68.3001C53.2004 77.4001 60.3004 84.8 69.2004 85.5ZM53.3004 65.2C52.0004 65.5 50.7004 65.7 49.4004 65.7C47.9004 65.7 46.4004 65.5 45.0004 65.1C44.7004 65 44.2004 64.8001 44.0004 64.8001C35.7004 62.0001 29.5004 52.8001 29.5004 41.9001V9.40005H69.2004V41.9001C69.2004 52.8001 63.0004 62.0001 54.6004 64.8001M71.9004 46.5C72.1004 45 72.3004 43.4 72.3004 41.8V17.8H85.9004C85.4004 23 83.0004 39.4 71.9004 46.5Z" fill="#6A6F4C"/>
<path fill-rule="evenodd" clip-rule="evenodd" d="M63.7998 27.2999L55.5998 26.1L51.8998 18.6C51.4998 17.8 50.5998 17.2 49.6998 17.2C48.7998 17.2 47.8998 17.7 47.4998 18.6L43.7998 26.1L35.5998 27.2999C34.6998 27.3999 33.8998 28.1 33.5998 29C33.2998 29.9 33.4998 30.9 34.1998 31.5L40.1998 37.2999L38.7998 45.5C38.5998 46.4 38.9998 47.3 39.7998 47.9C40.1998 48.2 40.6998 48.4 41.2998 48.4C41.6998 48.4 42.0998 48.2999 42.3998 48.0999L49.9998 44.2999L57.1998 48.0999C57.9998 48.4999 58.9998 48.5 59.7998 47.9C60.5998 47.3 60.8998 46.4 60.7998 45.5L59.3998 37.2999L65.3998 31.5C66.0998 30.8 66.2998 29.9 65.9998 29C65.4998 28.1 64.7998 27.3999 63.7998 27.2999ZM56.5998 35.7C56.1998 36 56.0998 36.5 56.1998 37L57.5998 44.9L50.6998 41.2999C50.2998 41.0999 49.7998 41.0999 49.2998 41.2999L41.8998 45L43.2998 37C43.3998 36.5 43.1998 36 42.8998 35.7L37.1998 30.1L45.0998 28.9C45.5998 28.8 45.9998 28.5 46.1998 28.1L49.6998 20.9L53.1998 28.1C53.3998 28.5 53.7998 28.9 54.2998 28.9L62.1998 30.1L56.5998 35.7Z" fill="#6A6F4C"/>
</svg>
